<svg width="852" height="568" viewBox="0 0 852 568" fill="none" xmlns="http://www.w3.org/2000/svg">
<path d="M504.907 483.036C504.837 483.036 506.447 477.846 506.587 477.536C508.197 473.896 513.507 467.776 517.907 468.256C518.596 468.346 519.26 468.571 519.861 468.918C520.463 469.265 520.99 469.727 521.412 470.278C521.835 470.828 522.145 471.457 522.324 472.128C522.504 472.799 522.549 473.498 522.457 474.186C522.44 474.372 522.406 474.556 522.358 474.736C521.718 477.836 518.637 480.206 515.957 481.486C512.767 482.976 504.907 483.036 504.907 483.036Z" fill="#2F2E41"/>
<path d="M839.648 423.656C836.448 422.256 831.228 416.386 831.218 416.376C831.208 416.366 836.128 414.136 836.458 414.016C840.298 412.826 848.318 412.736 850.898 416.426C851.283 417.003 851.551 417.65 851.686 418.331C851.82 419.011 851.819 419.711 851.683 420.391C851.546 421.072 851.277 421.718 850.89 422.294C850.503 422.869 850.006 423.363 849.428 423.746C849.272 423.86 849.104 423.958 848.928 424.036C846.178 425.596 842.378 424.846 839.648 423.656Z" fill="#2F2E41"/>
<path d="M757.128 456.366C755.128 457.786 753.288 459.156 751.698 460.366L748.698 459.546C750.758 458.006 753.178 456.286 755.818 454.436C757.368 453.356 759.048 452.236 760.818 451.106C760.019 449.299 759.327 447.445 758.748 445.556C755.748 445.716 750.308 443.956 749.608 443.736C748.908 445.466 748.248 447.136 747.608 448.736C746.238 452.336 745.138 455.576 744.238 458.316L741.678 457.636C742.678 454.846 743.878 451.556 745.348 447.876C746.048 446.126 746.828 444.256 747.648 442.356C747.008 441.956 741.818 438.626 740.228 436.216C738.798 434.036 737.578 430.816 738.528 428.216C738.902 427.047 739.725 426.073 740.816 425.511C741.908 424.948 743.178 424.842 744.348 425.216L744.808 425.386C748.348 427.086 749.488 434.066 749.018 437.546C749.018 437.746 748.438 439.946 748.078 441.316C748.428 440.516 748.728 439.786 749.078 438.996C749.788 437.396 750.528 435.866 751.298 434.176L752.578 431.766C752.958 430.986 753.498 430.156 753.968 429.336C755.078 427.446 756.298 425.606 757.578 423.776C756.198 423.146 751.318 420.876 749.578 418.936C747.838 416.996 746.148 413.996 746.668 411.256C746.855 410.037 747.518 408.942 748.512 408.211C749.505 407.48 750.748 407.172 751.968 407.356C752.149 407.371 752.328 407.412 752.498 407.476C756.258 408.616 758.408 415.366 758.498 418.856C758.498 419.076 758.258 421.596 758.098 422.976C758.878 421.876 759.648 420.776 760.468 419.706C762.838 416.556 765.318 413.456 767.788 410.366L770.018 407.556C769.518 407.356 763.618 404.786 761.698 402.606C759.958 400.606 758.268 397.666 758.798 394.926C758.997 393.71 759.669 392.621 760.667 391.898C761.666 391.175 762.91 390.876 764.128 391.066C764.306 391.083 764.481 391.123 764.648 391.186C768.408 392.316 770.558 399.076 770.648 402.566C770.648 402.826 770.298 406.406 770.178 407.376C771.828 405.276 773.438 403.166 774.948 400.986C777.006 398.11 778.876 395.103 780.548 391.986C780.308 391.926 774.148 389.256 772.178 386.986C770.438 384.986 768.748 382.066 769.278 379.306C769.479 378.094 770.151 377.01 771.147 376.291C772.144 375.572 773.384 375.276 774.598 375.466C774.767 375.487 774.935 375.524 775.098 375.576C778.858 376.706 781.008 383.466 781.098 386.956C781.098 387.186 780.858 389.956 780.698 391.266H780.918C782.489 388.08 783.774 384.76 784.758 381.346C785.338 379.456 785.758 377.626 786.168 375.836C784.978 375.466 779.588 373.686 777.528 371.836C775.468 369.986 773.578 367.316 773.808 364.536C773.836 363.927 773.984 363.33 774.244 362.778C774.504 362.226 774.87 361.731 775.321 361.321C775.773 360.912 776.301 360.595 776.875 360.39C777.45 360.185 778.059 360.095 778.668 360.126H779.178C783.018 360.846 785.948 367.306 786.398 370.786V374.336C786.558 373.536 786.738 372.686 786.898 371.916C787.428 368.986 787.748 366.296 788.008 363.916C788.148 362.546 788.248 361.286 788.318 360.156C787.318 359.156 783.478 355.156 782.518 352.666C781.558 350.176 781.098 346.846 782.518 344.506C783.131 343.438 784.143 342.658 785.332 342.335C786.521 342.013 787.789 342.175 788.858 342.786H788.918L789.338 343.056C792.438 345.476 792.038 352.546 790.838 355.856C790.758 356.136 788.588 360.396 788.528 360.346C788.528 361.456 788.418 362.646 788.298 363.946C788.098 366.366 787.798 369.066 787.358 372.036C786.871 375.212 786.203 378.357 785.358 381.456C784.437 384.935 783.209 388.325 781.688 391.586V391.756C782.478 390.906 784.758 388.646 784.948 388.486C787.698 386.286 794.288 383.696 797.548 385.936C798.047 386.283 798.472 386.725 798.8 387.237C799.128 387.748 799.352 388.319 799.459 388.918C799.566 389.516 799.553 390.129 799.423 390.723C799.292 391.316 799.046 391.878 798.698 392.376L798.388 392.776C796.628 394.916 793.268 395.496 790.638 395.396C787.638 395.276 781.968 392.396 781.518 392.156C779.868 395.43 778.007 398.593 775.948 401.626C774.748 403.386 773.498 405.146 772.218 406.886C772.918 406.176 773.498 405.606 773.648 405.476C776.388 403.286 782.978 400.676 786.248 402.916C787.254 403.625 787.939 404.705 788.15 405.918C788.362 407.13 788.084 408.378 787.378 409.386C787.279 409.526 787.172 409.659 787.058 409.786C785.298 411.936 781.938 412.526 779.378 412.426C776.818 412.326 771.788 409.956 770.498 409.316C769.988 409.966 769.498 410.596 769.008 411.316C766.598 414.476 764.188 417.616 761.928 420.776C761.138 421.896 760.418 423.046 759.638 424.136L760.918 422.856C763.658 420.666 770.248 418.056 773.518 420.296C774.522 421.007 775.205 422.086 775.416 423.298C775.628 424.51 775.352 425.757 774.648 426.766C774.548 426.906 774.438 427.046 774.328 427.176C772.568 429.316 769.208 429.906 766.648 429.736C764.088 429.566 759.548 427.486 758.018 426.736C757.268 427.916 756.528 429.096 755.878 430.256C755.458 431.036 754.968 431.806 754.598 432.646L753.398 435.096C752.678 436.696 751.948 438.276 751.298 439.836C750.838 440.916 750.418 441.956 750.018 442.986C750.788 441.876 752.368 439.726 752.578 439.556C754.76 437.375 757.461 435.785 760.428 434.936C760.663 434.683 760.92 434.452 761.198 434.246C762.154 433.476 763.377 433.117 764.598 433.248C765.819 433.379 766.937 433.99 767.708 434.946C767.808 435.076 767.908 435.216 767.998 435.356C769.998 438.716 767.098 445.166 764.798 447.816C764.668 447.986 763.008 449.496 761.938 450.376C762.648 449.916 763.328 449.466 764.098 449.006C765.558 448.076 767.028 447.186 768.608 446.246L771.018 444.956C771.798 444.506 772.688 444.126 773.518 443.676C775.518 442.726 777.518 441.856 779.618 441.036C778.818 439.756 776.008 435.176 775.618 432.596C775.228 430.016 775.458 426.596 777.418 424.596C777.831 424.148 778.329 423.786 778.883 423.53C779.436 423.275 780.035 423.131 780.644 423.107C781.253 423.082 781.861 423.179 782.433 423.39C783.005 423.601 783.53 423.922 783.978 424.336L784.328 424.696C786.888 427.696 784.938 434.536 783.048 437.486C782.928 437.666 781.348 439.646 780.488 440.716C781.768 440.216 782.978 439.716 784.258 439.266C787.958 437.986 791.748 436.706 795.518 435.526L798.978 434.376C798.678 433.936 795.138 428.566 794.788 425.656C794.408 423.096 794.638 419.656 796.578 417.656C797.416 416.75 798.58 416.214 799.814 416.165C801.048 416.116 802.25 416.559 803.158 417.396L803.508 417.746C806.058 420.746 804.118 427.596 802.228 430.536C802.088 430.756 799.798 433.596 799.228 434.286C801.788 433.436 804.228 432.566 806.718 431.626C810.02 430.347 813.239 428.864 816.358 427.186C816.218 426.966 812.518 421.386 812.148 418.406C811.768 415.846 811.998 412.406 813.938 410.406C814.776 409.5 815.94 408.964 817.174 408.915C818.408 408.866 819.61 409.309 820.518 410.146C820.638 410.266 820.748 410.386 820.848 410.506C823.408 413.506 821.468 420.356 819.568 423.296C819.448 423.496 817.708 425.666 816.858 426.666L816.998 426.846C820.095 425.067 823.021 423.005 825.738 420.686C827.248 419.416 828.628 418.136 829.948 416.856C829.158 415.856 825.618 411.406 824.948 408.766C824.278 406.126 824.148 402.816 825.858 400.626C826.589 399.634 827.683 398.971 828.901 398.784C830.119 398.597 831.362 398.899 832.358 399.626C832.497 399.713 832.625 399.817 832.738 399.936C835.588 402.666 834.428 409.656 832.898 412.806C832.309 413.838 831.668 414.84 830.978 415.806C831.593 415.259 832.177 414.678 832.728 414.066C834.788 411.946 836.568 409.846 838.088 407.996C838.958 406.916 839.728 405.946 840.418 404.996C840.148 403.636 839.138 398.176 839.718 395.556C840.298 392.936 841.718 389.916 844.268 388.736C845.379 388.195 846.658 388.114 847.829 388.511C848.999 388.908 849.965 389.751 850.518 390.856C850.578 391.016 850.638 391.156 850.688 391.306C851.968 395.026 847.688 400.716 844.858 402.826C844.628 403.006 840.488 405.376 840.468 405.306V405.226C839.818 406.136 839.078 407.096 838.298 408.116C836.788 410.026 835.068 412.116 833.008 414.336C830.851 416.721 828.557 418.978 826.138 421.096C823.439 423.478 820.534 425.616 817.458 427.486H817.348C818.468 427.216 821.628 426.576 821.878 426.556C825.378 426.246 832.318 427.716 833.828 431.326C834.276 432.468 834.253 433.741 833.764 434.866C833.275 435.991 832.359 436.876 831.218 437.326L830.728 437.496C828.078 438.316 824.948 436.946 822.818 435.426C820.428 433.686 817.258 428.116 816.998 427.686C813.817 429.499 810.524 431.106 807.138 432.496C805.138 433.296 803.138 434.096 801.138 434.826C801.794 434.654 802.463 434.533 803.138 434.466C806.628 434.156 813.578 435.626 815.138 439.236C815.586 440.379 815.561 441.654 815.07 442.779C814.579 443.904 813.661 444.788 812.518 445.236L812.028 445.406C809.388 446.226 806.258 444.856 804.128 443.316C801.998 441.776 799.128 437.076 798.448 435.826L796.108 436.656C792.358 437.936 788.608 439.216 784.978 440.656C783.698 441.156 782.418 441.656 781.138 442.196L782.848 441.866C786.338 441.556 793.288 443.026 794.848 446.646C795.296 447.782 795.279 449.049 794.8 450.172C794.321 451.295 793.418 452.184 792.288 452.646L791.808 452.816C789.158 453.626 786.018 452.256 783.888 450.736C781.758 449.216 779.188 444.966 778.348 443.456C777.068 444.006 775.788 444.606 774.618 445.206C773.818 445.636 773.008 445.996 772.218 446.486L769.618 448.006C768.158 448.936 766.618 449.886 765.258 450.826C764.258 451.446 763.368 452.096 762.428 452.736C763.708 452.186 766.268 451.316 766.428 451.256C769.848 450.396 776.908 450.826 778.968 454.156C779.596 455.217 779.777 456.484 779.472 457.679C779.166 458.873 778.398 459.898 777.338 460.526H777.278C777.134 460.615 776.984 460.692 776.828 460.756C774.278 461.976 771.028 461.086 768.698 459.896C766.138 458.616 762.298 453.786 761.798 453.186C760.018 454.316 758.508 455.356 757.128 456.366Z" fill="#2F2E41"/>
<path d="M10.7275 430.486C13.6375 429.356 18.4075 424.326 18.4075 424.326C18.4075 424.326 14.1175 422.156 13.8375 422.036C10.4975 420.846 3.34754 420.526 0.90754 423.686C0.173355 424.686 -0.133727 425.937 0.0537877 427.163C0.241302 428.39 0.908069 429.491 1.90754 430.226C2.03762 430.328 2.17846 430.415 2.32754 430.486C4.85754 431.986 8.27754 431.496 10.7275 430.486Z" fill="#2F2E41"/>
<path d="M59.9079 388.756C59.9079 388.756 57.5279 384.586 57.3479 384.336C55.2279 381.516 49.4479 377.336 45.6879 378.586C44.5296 379.02 43.5897 379.894 43.0727 381.018C42.5558 382.142 42.5038 383.424 42.9279 384.586C42.9799 384.749 43.0468 384.906 43.1279 385.056C44.3079 387.616 47.4379 389.056 50.0379 389.586C53.0879 390.326 59.8979 388.756 59.9079 388.756Z" fill="#2F2E41"/>
<path d="M82.8573 462.376C84.5673 463.656 86.1373 464.936 87.5473 466.216L90.2673 465.586C88.4873 464.146 86.4273 462.516 84.1273 460.796C82.8473 459.796 81.3273 458.736 79.8373 457.656C80.6224 456.081 81.3168 454.461 81.9173 452.806C84.4773 453.086 89.4373 451.686 90.0873 451.526C90.6373 453.086 91.1673 454.616 91.6373 456.046C92.7273 459.306 93.6373 462.216 94.3073 464.686L96.5073 464.166C95.7573 461.686 94.7873 458.696 93.5873 455.376C93.0173 453.796 92.3973 452.106 91.7373 450.376C92.3173 450.036 97.0473 447.266 98.5173 445.176C99.8673 443.286 101.077 440.486 100.327 438.176C100.185 437.654 99.941 437.165 99.6096 436.738C99.2782 436.31 98.8658 435.951 98.3959 435.683C97.926 435.415 97.4079 435.242 96.8711 435.173C96.3343 435.105 95.7893 435.144 95.2673 435.286H95.2073L94.7873 435.426C91.5473 436.806 90.3173 442.986 90.6173 446.076C90.6173 446.256 91.0373 448.226 91.3273 449.466C91.0473 448.766 90.7973 448.076 90.4973 447.376C89.9373 445.956 89.3173 444.546 88.6673 443.026L87.6673 440.846C87.3173 440.116 86.8973 439.376 86.5173 438.636C85.5973 436.916 84.5173 435.226 83.5173 433.516C84.7973 433.026 89.1973 431.186 90.7973 429.516C92.3973 427.846 94.0073 425.256 93.6773 422.806C93.5447 421.718 92.9859 420.727 92.1236 420.05C91.2613 419.374 90.1657 419.066 89.0773 419.196L88.6573 419.276C85.3073 420.156 83.1173 426.056 82.9473 429.166C82.9473 429.376 83.0673 431.606 83.1573 432.836C82.5173 431.836 81.8773 430.836 81.1573 429.836C79.1573 426.966 77.0773 424.146 74.9973 421.286L73.0173 418.756C73.4673 418.576 78.7273 416.546 80.5673 414.636C82.1873 412.966 83.7873 410.376 83.4573 407.936C83.3271 406.849 82.7705 405.858 81.9097 405.181C81.049 404.504 79.9546 404.197 78.8673 404.326C78.7183 404.338 78.571 404.365 78.4273 404.406C75.0773 405.276 72.9073 411.186 72.7373 414.296C72.7373 414.536 72.9073 417.776 72.9973 418.576C71.5973 416.666 70.2273 414.746 68.9973 412.776C67.2661 410.117 65.7095 407.348 64.3373 404.486C64.5473 404.486 70.0473 402.266 71.9273 400.336C73.5473 398.656 75.1473 396.086 74.8173 393.646C74.7529 393.106 74.5825 392.583 74.3158 392.108C74.0491 391.634 73.6914 391.216 73.2632 390.88C72.835 390.544 72.3447 390.295 71.8203 390.149C71.2959 390.002 70.7478 389.961 70.2073 390.026L69.7873 390.106C66.4373 390.976 64.2473 396.886 64.0873 400.006C64.0873 400.196 64.1973 402.636 64.2973 403.846H64.1173C62.7256 400.953 61.5945 397.941 60.7373 394.846C60.2973 393.166 59.9773 391.516 59.6773 389.926C60.7573 389.666 65.6173 388.236 67.4873 386.686C69.3573 385.136 71.1573 382.846 71.0573 380.366C71.0135 379.293 70.5577 378.279 69.7846 377.534C69.0116 376.789 67.9809 376.37 66.9073 376.366H66.4773C63.0473 376.876 60.2173 382.506 59.7273 385.566C59.7273 385.736 59.6073 387.476 59.5773 388.726C59.4573 388.006 59.3173 387.256 59.2273 386.566C58.8473 384.006 58.6573 381.566 58.5173 379.386C58.4373 378.106 58.3973 377.066 58.3773 376.046C59.2673 375.206 62.8373 371.796 63.7773 369.646C64.7173 367.496 65.2473 364.536 64.0173 362.396C63.4998 361.431 62.621 360.711 61.5733 360.392C60.5257 360.073 59.3945 360.183 58.4273 360.696L58.0573 360.916C55.2173 362.916 55.3173 369.256 56.2373 372.226C56.2373 372.476 58.0773 376.346 58.0673 376.306H58.1473V379.526C58.2473 381.666 58.3873 384.096 58.7073 386.726C59.0283 389.566 59.5159 392.384 60.1673 395.166C60.8695 398.275 61.8501 401.314 63.0973 404.246V404.346C62.4273 403.616 60.5373 401.486 60.3173 401.346C57.9473 399.346 52.1573 396.766 49.2173 398.596C48.7596 398.882 48.3629 399.255 48.0497 399.694C47.7366 400.134 47.5132 400.631 47.3925 401.156C47.2717 401.682 47.2559 402.227 47.3459 402.759C47.436 403.291 47.6302 403.799 47.9173 404.256C47.9983 404.386 48.0885 404.51 48.1873 404.626C49.6673 406.626 52.6373 407.186 55.0073 407.186C57.6473 407.186 62.8073 404.806 63.2173 404.626C64.5752 407.584 66.1252 410.45 67.8573 413.206C68.8573 414.816 69.9173 416.406 70.9973 417.996C70.5773 417.586 70.1773 417.156 69.8073 416.716C67.4373 414.666 61.6773 412.136 58.6973 413.946C57.7708 414.534 57.1156 415.466 56.8756 416.536C56.6356 417.607 56.8304 418.729 57.4173 419.656L57.6873 420.026C59.1773 422.026 62.1373 422.586 64.5073 422.586C66.8773 422.586 71.3173 420.646 72.5073 420.116L73.7873 421.936C75.7873 424.826 77.8573 427.686 79.7873 430.566C80.4573 431.566 81.0573 432.616 81.7273 433.676C81.2073 433.106 80.7273 432.616 80.6673 432.556C78.2973 430.556 72.5073 427.986 69.5773 429.806C69.119 430.094 68.7217 430.469 68.4084 430.91C68.095 431.351 67.8715 431.85 67.7508 432.377C67.6301 432.904 67.6145 433.45 67.7048 433.984C67.7951 434.517 67.9897 435.028 68.2773 435.486L68.5473 435.856C70.0273 437.856 73.0073 438.416 75.3573 438.416C77.7073 438.416 81.7573 436.676 83.1373 436.046C83.7573 437.126 84.4173 438.186 84.9073 439.246C85.2673 439.976 85.6573 440.666 85.9773 441.416C86.2973 442.166 86.6373 442.896 86.9773 443.626C87.5373 445.046 88.1373 446.516 88.6673 447.906C89.0373 448.906 89.3673 449.816 89.7173 450.766C89.0473 449.766 87.7173 447.766 87.5873 447.626C85.7016 445.575 83.3128 444.051 80.6573 443.206C80.461 442.973 80.2434 442.759 80.0073 442.566C79.1784 441.846 78.0976 441.485 77.0024 441.562C75.9072 441.639 74.8874 442.148 74.1673 442.976L73.8973 443.316C71.9973 446.246 74.3473 452.096 76.3073 454.516C76.4373 454.656 77.8373 456.056 78.7773 456.946C78.1473 456.506 77.5573 456.076 76.9073 455.596C75.6273 454.726 74.3473 453.886 72.9773 452.956L70.8973 451.756C70.2173 451.306 69.4573 450.946 68.7073 450.536C66.9973 449.626 65.2173 448.766 63.3973 447.976C64.1873 446.906 66.8173 442.856 67.2373 440.606C67.6573 438.356 67.5873 435.286 65.9573 433.456C65.2459 432.622 64.2325 432.104 63.1395 432.016C62.0465 431.927 60.9632 432.277 60.1273 432.986L59.8073 433.286C57.4673 435.846 58.9273 442.016 60.4773 444.676C60.5773 444.846 61.9173 446.676 62.6873 447.676C61.5873 447.186 60.4973 446.676 59.3673 446.266C56.1373 444.986 52.8173 443.706 49.5073 442.546L46.5073 441.546C46.7773 441.156 50.0473 436.546 50.5073 433.876C50.9273 431.596 50.8573 428.546 49.2273 426.736C48.4996 425.989 47.5153 425.547 46.4736 425.499C45.432 425.45 44.4109 425.8 43.6173 426.476C43.499 426.563 43.3915 426.664 43.2973 426.776C40.9673 429.326 42.3973 435.496 43.9673 438.156C44.0873 438.366 45.9673 440.956 46.5273 441.586C44.3073 440.756 42.1173 439.896 39.9673 438.966C37.0759 437.727 34.2668 436.304 31.5573 434.706C31.6873 434.526 35.1173 429.706 35.6073 427.026C36.0473 424.736 35.9473 421.696 34.3273 419.876C33.6141 419.041 32.599 418.523 31.5044 418.435C30.4098 418.347 29.3248 418.696 28.4873 419.406L28.1673 419.706C25.8473 422.266 27.2873 428.426 28.8473 431.096C28.9473 431.266 30.4273 433.246 31.1473 434.166L31.0073 434.316C28.3302 432.624 25.8072 430.7 23.4673 428.566C22.1873 427.416 20.9773 426.226 19.8573 425.046C20.5573 424.216 23.8573 420.366 24.5873 418.046C25.3173 415.726 25.5073 412.796 24.0673 410.806C23.7662 410.356 23.3793 409.97 22.9287 409.669C22.4782 409.369 21.9728 409.16 21.4415 409.055C20.9103 408.95 20.3636 408.951 19.8326 409.058C19.3017 409.164 18.7969 409.375 18.3473 409.676C18.2223 409.755 18.1051 409.845 17.9973 409.946C15.4373 412.276 16.1473 418.516 17.4073 421.376C17.8945 422.309 18.4285 423.217 19.0073 424.096C18.5073 423.576 18.0073 423.026 17.5073 422.496C15.7573 420.496 14.2773 418.656 12.9673 416.906C12.2273 415.906 11.5873 415.036 10.9673 414.196C11.2573 413.006 12.3573 408.196 11.9673 405.846C11.5773 403.496 10.3573 400.726 8.12729 399.626C7.65014 399.366 7.12631 399.202 6.58584 399.145C6.04536 399.088 5.49886 399.137 4.97768 399.292C4.4565 399.446 3.97088 399.701 3.54868 400.044C3.12647 400.386 2.77597 400.808 2.51729 401.286C2.44717 401.415 2.387 401.549 2.33729 401.686C1.05729 404.946 4.64729 410.136 7.09729 412.126C7.30729 412.286 10.9373 414.546 10.9373 414.476V414.416C11.4973 415.246 12.1073 416.116 12.7873 417.046C14.0673 418.786 15.4973 420.746 17.2273 422.756C19.062 424.948 21.0255 427.028 23.1073 428.986C25.4178 431.204 27.921 433.212 30.5873 434.986H30.6873C29.7373 434.706 26.8473 433.986 26.6873 433.986C23.5873 433.586 17.3873 434.656 15.8973 437.826C15.4558 438.828 15.4289 439.963 15.8224 440.985C16.216 442.006 16.9979 442.83 17.9973 443.276L18.4573 443.446C20.7873 444.256 23.5773 443.136 25.5573 441.886C27.7473 440.426 30.7573 435.596 30.9973 435.216C33.758 436.946 36.6311 438.489 39.5973 439.836C41.3073 440.626 43.0673 441.386 44.8373 442.096L43.0973 441.686C40.0173 441.296 33.7973 442.356 32.3273 445.526C31.8856 446.525 31.8575 447.658 32.2492 448.678C32.6409 449.697 33.4204 450.52 34.4173 450.966L34.8673 451.136C37.1973 451.936 39.9873 450.826 41.9573 449.556C43.9273 448.286 46.5773 444.186 47.2673 443.096L49.2673 443.916C52.5573 445.196 55.8373 446.476 59.0573 447.856C60.1873 448.336 61.2773 448.856 62.3573 449.346C61.6073 449.146 60.9573 449.006 60.8473 448.996C57.7673 448.596 51.5573 449.666 50.0773 452.836C49.8576 453.333 49.738 453.867 49.7252 454.41C49.7124 454.953 49.8066 455.492 50.0026 455.999C50.1986 456.505 50.4924 456.967 50.8672 457.36C51.2421 457.752 51.6907 458.067 52.1873 458.286L52.6373 458.456C54.9573 459.256 57.7573 458.146 59.7373 456.876C61.7173 455.606 64.0873 451.876 64.8573 450.606C65.9673 451.156 67.0573 451.706 68.1073 452.296C68.8073 452.706 69.5073 453.056 70.1673 453.516L72.3073 454.756C73.5873 455.626 74.8673 456.506 76.1473 457.426C76.9973 458.026 77.7973 458.616 78.5873 459.216C77.4873 458.736 75.2873 457.836 75.0973 457.776C72.0973 456.916 65.8073 457.016 63.8673 459.926C63.5765 460.382 63.3785 460.89 63.2845 461.422C63.1904 461.954 63.2023 462.5 63.3193 463.028C63.4363 463.555 63.6563 464.054 63.9665 464.497C64.2767 464.939 64.6712 465.316 65.1273 465.606L65.5173 465.826C67.6873 466.976 70.6373 466.316 72.7673 465.346C75.0873 464.266 78.6573 460.146 79.1673 459.606C80.4273 460.456 81.6873 461.446 82.8573 462.376Z" fill="#2F2E41"/>
<path d="M654.017 26.1162C578.447 -18.6638 477.907 -2.88381 407.107 50.8162C356.457 89.2062 309.437 133.976 251.637 160.436C207.187 180.736 156.467 190.516 123.277 229.086C71.3972 289.476 78.2772 374.586 114.277 441.086C156.127 518.236 232.017 552.906 316.597 563.896C400.877 574.896 489.597 562.256 563.597 518.896C662.117 461.096 714.937 350.616 733.757 241.276C747.857 158.886 730.547 71.4162 654.017 26.1162Z" fill="#EE781D"/>
<path opacity="0.7" d="M654.017 26.1162C578.447 -18.6638 477.907 -2.88381 407.107 50.8162C356.457 89.2062 309.437 133.976 251.637 160.436C207.187 180.736 156.467 190.516 123.277 229.086C71.3972 289.476 78.2772 374.586 114.277 441.086C156.127 518.236 232.017 552.906 316.597 563.896C400.877 574.896 489.597 562.256 563.597 518.896C662.117 461.096 714.937 350.616 733.757 241.276C747.857 158.886 730.547 71.4162 654.017 26.1162Z" fill="white"/>
<path d="M751.557 86.6562V505.856C751.557 511.054 749.492 516.04 745.817 519.715C742.141 523.391 737.156 525.456 731.957 525.456H107.417C102.219 525.456 97.2338 523.391 93.5581 519.715C89.8824 516.04 87.8174 511.054 87.8174 505.856V85.8562C88.0201 80.9781 90.0361 76.3512 93.4708 72.8814C96.9055 69.4116 101.512 67.3485 106.387 67.0962H732.957C737.834 67.3483 742.441 69.411 745.878 72.8806C749.314 76.3503 751.332 80.9772 751.537 85.8562C751.547 86.0662 751.557 86.3762 751.557 86.6562Z" fill="white"/>
<path d="M731.957 526.066H107.407C102.05 526.058 96.9138 523.926 93.1254 520.138C89.337 516.35 87.2052 511.214 87.1973 505.856V85.8562C87.3798 80.8129 89.4509 76.0224 92.9998 72.4346C96.5487 68.8468 101.316 66.7236 106.357 66.4861H732.957C737.986 66.7169 742.746 68.8235 746.298 72.3906C749.851 75.9577 751.937 80.7263 752.147 85.7561C752.147 86.0061 752.147 86.3261 752.147 86.6161V505.856C752.139 511.21 750.01 516.343 746.226 520.131C742.442 523.919 737.311 526.053 731.957 526.066ZM106.387 67.6861C101.657 67.9059 97.1814 69.8944 93.8477 73.2578C90.514 76.6211 88.5652 81.1139 88.3873 85.8461V505.846C88.3873 510.885 90.389 515.718 93.9522 519.281C97.5154 522.844 102.348 524.846 107.387 524.846H731.947C736.986 524.846 741.819 522.844 745.382 519.281C748.946 515.718 750.947 510.885 750.947 505.846V86.6561C750.947 86.3861 750.947 86.0862 750.947 85.8562C750.772 81.1222 748.824 76.6269 745.49 73.2615C742.156 69.896 737.679 67.9061 732.947 67.6861H106.387Z" fill="#2F2E41"/>
<path d="M751.538 85.8262H87.8379C88.0408 80.9464 90.0582 76.3182 93.495 72.8482C96.9318 69.3781 101.54 67.3161 106.418 67.0662H732.958C737.835 67.3183 742.442 69.381 745.878 72.8506C749.315 76.3203 751.333 80.9472 751.538 85.8262Z" fill="#EE781D"/>
<path d="M752.178 86.4462H87.1777V85.7962C87.3678 80.7566 89.4435 75.9721 92.9938 72.3904C96.5441 68.8086 101.31 66.6907 106.348 66.4562H732.958C737.992 66.6874 742.756 68.7983 746.309 72.3717C749.862 75.9451 751.945 80.7211 752.148 85.7562L752.178 86.4462ZM88.4977 85.2062H750.878C750.546 80.5872 748.53 76.2508 745.212 73.0209C741.893 69.791 737.504 67.8925 732.878 67.6862H106.418C101.805 67.9094 97.4338 69.8156 94.1316 73.0441C90.8294 76.2726 88.825 80.5995 88.4977 85.2062Z" fill="#2F2E41"/>
<path d="M121.798 76.4362C121.8 77.0457 121.621 77.6422 121.283 78.15C120.946 78.6578 120.466 79.0542 119.903 79.2888C119.341 79.5235 118.721 79.5859 118.123 79.4682C117.525 79.3505 116.975 79.0579 116.543 78.6276C116.112 78.1972 115.817 77.6485 115.698 77.0507C115.578 76.453 115.638 75.8332 115.871 75.2698C116.104 74.7064 116.499 74.2248 117.005 73.8859C117.512 73.5471 118.108 73.3662 118.718 73.3662C119.522 73.3607 120.297 73.6726 120.873 74.2341C121.45 74.7956 121.782 75.5616 121.798 76.3662V76.4362Z" fill="white"/>
<path d="M133.898 76.4361C133.898 77.0433 133.718 77.6369 133.38 78.1418C133.043 78.6466 132.564 79.0401 132.003 79.2725C131.442 79.5048 130.824 79.5656 130.229 79.4472C129.633 79.3287 129.086 79.0363 128.657 78.607C128.228 78.1776 127.935 77.6306 127.817 77.0351C127.698 76.4396 127.759 75.8223 127.992 75.2613C128.224 74.7003 128.617 74.2209 129.122 73.8836C129.627 73.5462 130.221 73.3662 130.828 73.3662C131.632 73.3608 132.405 73.6729 132.98 74.2347C133.555 74.7965 133.885 75.5625 133.898 76.3662V76.4361Z" fill="white"/>
<path d="M146.017 76.4362C146.019 77.0453 145.841 77.6414 145.504 78.149C145.167 78.6566 144.687 79.0529 144.125 79.2878C143.563 79.5228 142.944 79.5858 142.346 79.4689C141.749 79.352 141.199 79.0604 140.767 78.6311C140.334 78.2018 140.039 77.6539 139.919 77.0568C139.798 76.4598 139.857 75.8403 140.088 75.2767C140.319 74.7132 140.713 74.2309 141.218 73.8908C141.723 73.5507 142.318 73.3681 142.927 73.3662C143.732 73.3607 144.507 73.6726 145.083 74.2341C145.66 74.7956 145.992 75.5616 146.007 76.3662L146.017 76.4362Z" fill="white"/>
<path d="M121.308 289.536C130.006 289.536 137.058 282.485 137.058 273.786C137.058 265.088 130.006 258.036 121.308 258.036C112.609 258.036 105.558 265.088 105.558 273.786C105.558 282.485 112.609 289.536 121.308 289.536Z" fill="white"/>
<path d="M121.307 290.156C118.071 290.156 114.907 289.197 112.216 287.399C109.525 285.602 107.426 283.047 106.186 280.058C104.947 277.068 104.621 273.778 105.25 270.604C105.879 267.429 107.435 264.512 109.722 262.221C112.008 259.931 114.922 258.369 118.095 257.734C121.269 257.099 124.56 257.419 127.551 258.654C130.543 259.888 133.102 261.982 134.904 264.67C136.706 267.358 137.672 270.52 137.677 273.756C137.68 275.908 137.259 278.039 136.437 280.028C135.616 282.017 134.411 283.825 132.89 285.348C131.37 286.871 129.565 288.08 127.577 288.905C125.59 289.73 123.459 290.155 121.307 290.156ZM121.307 258.656C118.314 258.656 115.387 259.544 112.899 261.208C110.41 262.872 108.471 265.237 107.326 268.003C106.182 270.769 105.884 273.813 106.47 276.749C107.057 279.685 108.501 282.381 110.62 284.495C112.739 286.61 115.437 288.049 118.374 288.629C121.311 289.209 124.354 288.906 127.118 287.756C129.882 286.606 132.243 284.662 133.902 282.17C135.561 279.678 136.443 276.75 136.437 273.756C136.424 269.75 134.825 265.913 131.99 263.083C129.154 260.253 125.313 258.661 121.307 258.656Z" fill="#2F2E41"/>
<path d="M123.818 281.776L115.628 273.826L123.778 264.086L124.728 264.886L117.318 273.746L124.678 280.896L123.818 281.776Z" fill="#2F2E41"/>
<path d="M441.198 477.756C441.01 478.845 441.048 479.961 441.309 481.034C441.571 482.108 442.05 483.116 442.718 483.996C444.998 487.056 447.088 487.436 447.088 487.436V500.876C447.088 500.876 435.088 503.206 432.268 501.496C430.338 500.336 430.418 494.256 430.668 490.496C430.721 489.649 431.078 488.85 431.673 488.246C432.268 487.641 433.062 487.272 433.908 487.206L437.748 486.886C437.748 486.886 436.828 476.276 441.198 477.756Z" fill="#2F2E41"/>
<path d="M453.217 486.916H448.857V501.156H453.217V486.916Z" fill="#2F2E41"/>
<path d="M465.547 495.836V496.956C465.65 497.381 465.658 497.823 465.572 498.252C465.486 498.68 465.307 499.085 465.048 499.437C464.789 499.789 464.456 500.08 464.073 500.29C463.689 500.5 463.265 500.624 462.829 500.653C462.393 500.682 461.955 500.615 461.548 500.457C461.14 500.299 460.772 500.054 460.469 499.739C460.166 499.424 459.935 499.047 459.793 498.634C459.652 498.22 459.602 497.781 459.647 497.346C459.637 497.216 459.637 497.086 459.647 496.956V496.606L461.427 496.426V496.836C461.427 497.836 461.847 498.226 462.567 498.226C463.287 498.226 463.687 497.806 463.687 496.946V495.666C463.687 494.666 463.267 494.276 462.297 494.276H461.567V492.536H462.227C463.227 492.536 463.627 492.116 463.627 491.136V490.196C463.656 489.941 463.586 489.685 463.432 489.48C463.277 489.276 463.05 489.138 462.797 489.096H462.577C461.907 489.096 461.527 489.476 461.527 490.376V490.636H459.677V490.346C459.652 489.971 459.701 489.595 459.822 489.239C459.942 488.883 460.132 488.555 460.379 488.272C460.627 487.989 460.927 487.758 461.264 487.591C461.601 487.425 461.967 487.326 462.342 487.301C462.717 487.276 463.093 487.325 463.449 487.446C463.805 487.566 464.134 487.756 464.417 488.003C464.699 488.251 464.931 488.551 465.097 488.888C465.264 489.225 465.362 489.591 465.387 489.966C465.397 490.093 465.397 490.22 465.387 490.346V491.136C464.768 491.517 464.325 492.127 464.155 492.833C463.984 493.54 464.1 494.285 464.477 494.906C464.722 495.318 465.066 495.662 465.477 495.906L465.547 495.836Z" fill="#2F2E41"/>
<path d="M467.018 497.026V490.346C467.133 489.645 467.494 489.007 468.037 488.547C468.579 488.087 469.267 487.834 469.978 487.834C470.689 487.834 471.376 488.087 471.919 488.547C472.461 489.007 472.822 489.645 472.938 490.346V497.016C472.822 497.718 472.461 498.355 471.919 498.815C471.376 499.275 470.689 499.528 469.978 499.528C469.267 499.528 468.579 499.275 468.037 498.815C467.494 498.355 467.133 497.718 467.018 497.016V497.026ZM471.088 497.026V490.346C471.089 490.2 471.061 490.054 471.006 489.918C470.951 489.783 470.869 489.659 470.766 489.555C470.663 489.451 470.54 489.368 470.405 489.312C470.269 489.255 470.124 489.226 469.978 489.226C469.683 489.229 469.401 489.346 469.192 489.554C468.983 489.761 468.863 490.042 468.858 490.336V497.006C468.884 497.284 469.013 497.541 469.219 497.729C469.425 497.917 469.694 498.02 469.973 498.02C470.251 498.02 470.52 497.917 470.726 497.729C470.932 497.541 471.061 497.284 471.088 497.006V497.026Z" fill="#2F2E41"/>
<path d="M480.817 494.756L480.117 496.096V499.756H478.277V487.596H480.137V492.546L482.587 487.596H484.587L482.017 492.756L484.807 499.756H482.707L480.817 494.756Z" fill="#2F2E41"/>
<path d="M513.647 508.906C513.462 507.817 513.501 506.702 513.762 505.629C514.024 504.556 514.502 503.548 515.167 502.666C517.447 499.596 519.547 499.226 519.547 499.226V485.756C519.547 485.756 507.547 483.406 504.727 485.126C502.787 486.286 502.877 492.366 503.117 496.126C503.173 496.974 503.532 497.773 504.129 498.378C504.726 498.982 505.52 499.351 506.367 499.416L510.207 499.736C510.207 499.736 509.287 510.436 513.647 508.906Z" fill="#2F2E41"/>
<path d="M526.307 485.546H521.947V499.786H526.307V485.546Z" fill="#2F2E41"/>
<path d="M537.368 490.216H535.268V488.936C535.787 488.956 536.302 488.844 536.766 488.609C537.23 488.375 537.626 488.026 537.918 487.596H539.198V499.756H537.358L537.368 490.216Z" fill="#2F2E41"/>
<path d="M542.908 498.026H546.568V499.756H540.718V498.146L543.418 493.846C544.178 492.872 544.624 491.69 544.698 490.456C544.698 489.606 544.298 489.176 543.588 489.176C542.878 489.176 542.478 489.646 542.478 490.456V491.166H540.698V490.596C540.637 490.188 540.667 489.77 540.786 489.375C540.906 488.979 541.112 488.615 541.39 488.309C541.667 488.003 542.009 487.762 542.391 487.604C542.773 487.446 543.185 487.375 543.598 487.396C544.322 487.338 545.039 487.57 545.592 488.041C546.146 488.511 546.489 489.182 546.548 489.906C546.563 490.072 546.563 490.24 546.548 490.406C546.473 491.997 545.903 493.525 544.918 494.776L542.908 498.026Z" fill="#2F2E41"/>
<path d="M547.948 496.996V496.626L549.728 496.446V496.856C549.728 497.856 550.148 498.216 550.828 498.216C551.508 498.216 551.928 497.826 551.928 497.026V494.186C551.928 493.466 551.548 493.106 550.928 493.106C550.632 493.095 550.345 493.202 550.127 493.402C549.91 493.603 549.781 493.881 549.768 494.176C549.763 494.223 549.763 494.27 549.768 494.316V494.526H547.908V487.526H553.188V489.266H549.688V492.266C549.88 491.98 550.144 491.749 550.452 491.595C550.761 491.441 551.104 491.369 551.448 491.386C551.734 491.38 552.018 491.429 552.284 491.533C552.551 491.637 552.794 491.792 553.001 491.99C553.207 492.188 553.372 492.424 553.487 492.686C553.601 492.948 553.663 493.23 553.668 493.516C553.678 493.626 553.678 493.736 553.668 493.846V496.916C553.718 497.689 553.459 498.451 552.948 499.033C552.437 499.615 551.716 499.971 550.943 500.021C550.17 500.072 549.408 499.813 548.826 499.302C548.244 498.791 547.888 498.069 547.838 497.296V496.916L547.948 496.996Z" fill="#2F2E41"/>
<path d="M286.678 500.756V491.366H291.458L298.758 484.266V506.516L292.718 500.376L286.678 500.756Z" fill="#2F2E41"/>
<path d="M305.858 495.466C305.859 496.878 305.437 498.258 304.648 499.429C303.859 500.6 302.737 501.508 301.428 502.036V488.826C302.748 489.359 303.877 490.278 304.668 491.462C305.458 492.647 305.873 494.042 305.858 495.466Z" fill="#2F2E41"/>
<path d="M301.548 506.986L301.258 505.786C303.646 505.208 305.762 503.826 307.25 501.871C308.738 499.917 309.507 497.509 309.429 495.054C309.35 492.598 308.428 490.245 306.818 488.39C305.208 486.534 303.008 485.29 300.588 484.866L300.808 483.646C303.505 484.123 305.955 485.514 307.748 487.584C309.541 489.654 310.567 492.278 310.654 495.016C310.741 497.753 309.883 500.437 308.225 502.617C306.567 504.796 304.209 506.339 301.548 506.986Z" fill="#2F2E41"/>
<path d="M207.227 505.886C206.954 505.886 206.684 505.832 206.431 505.728C206.179 505.623 205.95 505.47 205.757 505.277C205.564 505.084 205.41 504.855 205.306 504.602C205.201 504.35 205.147 504.079 205.147 503.806V488.336C205.147 488.063 205.201 487.793 205.306 487.54C205.41 487.288 205.564 487.059 205.757 486.865C205.95 486.672 206.179 486.519 206.431 486.414C206.684 486.31 206.954 486.256 207.227 486.256C207.78 486.256 208.31 486.475 208.702 486.865C209.093 487.255 209.315 487.784 209.317 488.336V503.806C209.315 504.359 209.093 504.888 208.702 505.278C208.31 505.667 207.78 505.886 207.227 505.886Z" fill="#2F2E41"/>
<path d="M215.558 505.886C215.005 505.886 214.475 505.667 214.083 505.278C213.692 504.888 213.47 504.359 213.468 503.806V488.336C213.47 487.784 213.692 487.255 214.083 486.865C214.475 486.475 215.005 486.256 215.558 486.256C216.11 486.256 216.64 486.475 217.032 486.865C217.424 487.255 217.645 487.784 217.648 488.336V503.806C217.645 504.359 217.424 504.888 217.032 505.278C216.64 505.667 216.11 505.886 215.558 505.886Z" fill="#2F2E41"/>
<path d="M165.717 486.506C166.272 486.509 166.804 486.731 167.196 487.125C167.587 487.518 167.807 488.051 167.807 488.606V504.206C167.805 504.76 167.584 505.29 167.192 505.681C166.801 506.073 166.271 506.294 165.717 506.296C165.443 506.3 165.17 506.25 164.916 506.147C164.661 506.045 164.429 505.893 164.234 505.701C164.039 505.508 163.883 505.278 163.778 505.025C163.672 504.772 163.617 504.501 163.617 504.226V488.546C163.63 487.999 163.858 487.479 164.25 487.097C164.643 486.716 165.17 486.503 165.717 486.506Z" fill="#2F2E41"/>
<path d="M181.288 488.116V504.416C181.288 504.644 181.197 504.863 181.036 505.024C180.874 505.186 180.656 505.276 180.428 505.276C180.236 505.278 180.049 505.214 179.898 505.096L169.108 496.546C169.017 496.479 168.94 496.395 168.883 496.298C168.825 496.201 168.787 496.094 168.771 495.982C168.755 495.87 168.762 495.756 168.79 495.647C168.819 495.538 168.869 495.436 168.938 495.346C168.984 495.283 169.042 495.229 169.108 495.186L179.898 487.376C180.079 487.238 180.307 487.176 180.533 487.204C180.76 487.232 180.966 487.348 181.108 487.526C181.235 487.696 181.299 487.904 181.288 488.116Z" fill="#2F2E41"/>
<path d="M256.838 505.416C256.283 505.406 255.755 505.177 255.368 504.781C254.981 504.384 254.765 503.851 254.768 503.296L254.958 487.696C254.963 487.144 255.187 486.616 255.58 486.228C255.974 485.84 256.505 485.624 257.058 485.626C257.332 485.627 257.603 485.683 257.855 485.789C258.108 485.896 258.337 486.051 258.529 486.246C258.721 486.441 258.873 486.672 258.976 486.926C259.079 487.18 259.13 487.452 259.128 487.726L258.948 503.326C258.94 503.882 258.714 504.412 258.32 504.802C257.925 505.193 257.393 505.414 256.838 505.416Z" fill="#2F2E41"/>
<path d="M241.298 503.546L241.488 487.196C241.491 487.036 241.54 486.879 241.628 486.745C241.716 486.61 241.839 486.503 241.985 486.435C242.131 486.368 242.293 486.342 242.452 486.362C242.612 486.381 242.762 486.445 242.888 486.546L253.578 495.216C253.668 495.285 253.744 495.371 253.801 495.469C253.858 495.567 253.894 495.675 253.909 495.788C253.924 495.9 253.917 496.015 253.887 496.124C253.858 496.234 253.807 496.336 253.738 496.426C253.689 496.481 253.636 496.531 253.578 496.576L242.688 504.256C242.558 504.357 242.403 504.42 242.24 504.435C242.076 504.451 241.912 504.42 241.766 504.345C241.62 504.271 241.498 504.156 241.415 504.014C241.332 503.873 241.291 503.71 241.298 503.546Z" fill="#2F2E41"/>
<path d="M532.357 442.816H167.597C161.301 442.816 156.197 447.92 156.197 454.216V457.986C156.197 464.282 161.301 469.386 167.597 469.386H532.357C538.653 469.386 543.757 464.282 543.757 457.986V454.216C543.757 447.92 538.653 442.816 532.357 442.816Z" fill="white"/>
<path d="M532.358 470.006H167.598C164.415 470.006 161.363 468.742 159.112 466.491C156.862 464.241 155.598 461.189 155.598 458.006V454.236C155.598 451.054 156.862 448.001 159.112 445.751C161.363 443.5 164.415 442.236 167.598 442.236H532.358C535.54 442.236 538.592 443.5 540.843 445.751C543.093 448.001 544.358 451.054 544.358 454.236V458.006C544.358 461.189 543.093 464.241 540.843 466.491C538.592 468.742 535.54 470.006 532.358 470.006ZM167.598 443.436C164.739 443.439 161.999 444.575 159.978 446.596C157.957 448.618 156.82 451.358 156.818 454.216V457.986C156.823 460.843 157.961 463.58 159.981 465.599C162.002 467.618 164.741 468.754 167.598 468.756H532.358C535.217 468.751 537.957 467.612 539.978 465.589C541.999 463.567 543.135 460.825 543.138 457.966V454.196C543.132 451.339 541.995 448.6 539.974 446.579C537.954 444.559 535.215 443.421 532.358 443.416L167.598 443.436Z" fill="#2F2E41"/>
<path d="M531.177 456.056C531.178 456.84 530.871 457.592 530.324 458.153C529.776 458.714 529.031 459.038 528.247 459.056H173.188C172.392 459.056 171.629 458.74 171.066 458.177C170.504 457.615 170.188 456.852 170.188 456.056C170.188 455.261 170.504 454.497 171.066 453.935C171.629 453.372 172.392 453.056 173.188 453.056H528.188C528.983 453.056 529.746 453.372 530.309 453.935C530.871 454.497 531.188 455.261 531.188 456.056H531.177Z" fill="#2F2E41"/>
<path d="M262.947 453.076L262.738 459.076H173.188C172.392 459.076 171.629 458.76 171.066 458.198C170.504 457.635 170.188 456.872 170.188 456.076C170.188 455.281 170.504 454.517 171.066 453.955C171.629 453.392 172.392 453.076 173.188 453.076H262.947Z" fill="#EE781D"/>
<path d="M269.407 455.456C269.409 457.065 268.934 458.637 268.042 459.976C267.15 461.314 265.881 462.358 264.396 462.974C262.91 463.591 261.275 463.754 259.698 463.441C258.12 463.129 256.67 462.355 255.532 461.219C254.394 460.082 253.619 458.633 253.304 457.056C252.99 455.479 253.15 453.843 253.765 452.357C254.38 450.871 255.422 449.601 256.76 448.707C258.097 447.813 259.669 447.336 261.277 447.336C263.432 447.336 265.498 448.191 267.023 449.714C268.547 451.236 269.405 453.302 269.407 455.456Z" fill="#2F2E41"/>
<path d="M264.558 455.356C264.56 456.009 264.368 456.647 264.007 457.191C263.646 457.735 263.132 458.16 262.53 458.411C261.928 458.663 261.265 458.73 260.624 458.605C259.983 458.479 259.395 458.167 258.932 457.707C258.469 457.247 258.153 456.66 258.023 456.02C257.894 455.38 257.957 454.716 258.205 454.113C258.453 453.509 258.875 452.992 259.416 452.628C259.958 452.264 260.595 452.068 261.248 452.066C261.681 452.065 262.111 452.149 262.512 452.314C262.912 452.478 263.277 452.72 263.584 453.026C263.892 453.331 264.136 453.694 264.303 454.094C264.47 454.494 264.557 454.923 264.558 455.356Z" fill="white"/>
<path d="M558.188 150.546V401.546C558.183 406.549 556.193 411.346 552.655 414.883C549.117 418.421 544.321 420.411 539.318 420.416H175.068C170.063 420.416 165.264 418.428 161.725 414.889C158.186 411.35 156.198 406.551 156.198 401.546V150.546C156.19 149.565 156.266 148.584 156.428 147.616C157.128 143.175 159.39 139.129 162.807 136.207C166.224 133.285 170.572 131.678 175.068 131.676H539.248C543.742 131.685 548.087 133.293 551.503 136.214C554.918 139.135 557.182 143.178 557.888 147.616C558.067 148.583 558.168 149.563 558.188 150.546Z" fill="white"/>
<path d="M539.318 420.996H175.068C169.9 420.991 164.946 418.936 161.292 415.282C157.638 411.628 155.583 406.674 155.578 401.506V150.506C155.569 149.501 155.65 148.497 155.818 147.506C156.524 142.912 158.855 138.724 162.388 135.704C165.921 132.683 170.42 131.03 175.068 131.046H539.248C543.893 131.039 548.388 132.694 551.919 135.713C555.45 138.733 557.784 142.916 558.498 147.506C558.677 148.497 558.777 149.5 558.798 150.506V401.506C558.787 406.67 556.732 411.62 553.081 415.272C549.43 418.925 544.482 420.983 539.318 420.996ZM175.068 132.296C170.705 132.278 166.481 133.83 163.167 136.668C159.853 139.507 157.67 143.442 157.018 147.756C156.859 148.691 156.786 149.638 156.798 150.586V401.586C156.824 406.414 158.761 411.036 162.184 414.44C165.608 417.845 170.239 419.756 175.068 419.756H539.318C544.155 419.746 548.791 417.819 552.211 414.399C555.631 410.979 557.557 406.343 557.568 401.506V150.506C557.546 149.56 557.449 148.617 557.278 147.686C556.614 143.389 554.434 139.471 551.133 136.641C547.831 133.811 543.626 132.255 539.278 132.256L175.068 132.296Z" fill="#2F2E41"/>
<path d="M292.397 101.456H163.067V115.156H292.397V101.456Z" fill="#2F2E41"/>
<path d="M726.467 137.166H646.737V145.086H726.467V137.166Z" fill="#2F2E41"/>
<path d="M726.467 152.476H646.737V160.396H726.467V152.476Z" fill="#2F2E41"/>
<path d="M726.467 167.796H646.737V175.716H726.467V167.796Z" fill="#2F2E41"/>
<path opacity="0.1" d="M614.998 122.236H498.118C491.822 122.236 486.718 127.34 486.718 133.636V198.226C486.718 204.522 491.822 209.626 498.118 209.626H614.998C621.294 209.626 626.398 204.522 626.398 198.226V133.636C626.398 127.34 621.294 122.236 614.998 122.236Z" fill="black"/>
<path d="M624.298 115.506H507.418C501.122 115.506 496.018 120.61 496.018 126.906V191.496C496.018 197.792 501.122 202.896 507.418 202.896H624.298C630.594 202.896 635.698 197.792 635.698 191.496V126.906C635.698 120.61 630.594 115.506 624.298 115.506Z" fill="#EE781D"/>
<path d="M624.298 203.516H507.418C504.235 203.516 501.183 202.252 498.933 200.001C496.682 197.751 495.418 194.699 495.418 191.516V126.906C495.418 123.724 496.682 120.671 498.933 118.421C501.183 116.17 504.235 114.906 507.418 114.906H624.298C627.481 114.906 630.533 116.17 632.783 118.421C635.034 120.671 636.298 123.724 636.298 126.906V191.496C636.301 193.074 635.992 194.636 635.39 196.095C634.788 197.553 633.905 198.878 632.79 199.994C631.676 201.111 630.352 201.996 628.895 202.601C627.438 203.205 625.876 203.516 624.298 203.516ZM507.418 116.126C504.56 116.129 501.819 117.265 499.798 119.286C497.777 121.308 496.641 124.048 496.638 126.906V191.496C496.641 194.354 497.777 197.095 499.798 199.116C501.819 201.137 504.56 202.274 507.418 202.276H624.298C627.157 202.276 629.899 201.14 631.921 199.119C633.942 197.097 635.078 194.355 635.078 191.496V126.906C635.078 124.047 633.942 121.305 631.921 119.284C629.899 117.262 627.157 116.126 624.298 116.126H507.418Z" fill="#2F2E41"/>
<path d="M565.927 189.176C582.258 189.176 595.497 175.937 595.497 159.606C595.497 143.275 582.258 130.036 565.927 130.036C549.596 130.036 536.357 143.275 536.357 159.606C536.357 175.937 549.596 189.176 565.927 189.176Z" fill="white"/>
<path d="M557.527 176.686V144.036L583.477 160.356L557.527 176.686Z" fill="#2F2E41"/>
<path d="M726.467 252.866H646.737V260.786H726.467V252.866Z" fill="#2F2E41"/>
<path d="M726.467 268.176H646.737V276.096H726.467V268.176Z" fill="#2F2E41"/>
<path d="M726.467 283.486H646.737V291.406H726.467V283.486Z" fill="#2F2E41"/>
<path opacity="0.1" d="M614.998 235.636H498.118C491.822 235.636 486.718 240.74 486.718 247.036V311.626C486.718 317.922 491.822 323.026 498.118 323.026H614.998C621.294 323.026 626.398 317.922 626.398 311.626V247.036C626.398 240.74 621.294 235.636 614.998 235.636Z" fill="black"/>
<path d="M624.298 229.396H507.418C501.122 229.396 496.018 234.5 496.018 240.796V305.386C496.018 311.682 501.122 316.786 507.418 316.786H624.298C630.594 316.786 635.698 311.682 635.698 305.386V240.796C635.698 234.5 630.594 229.396 624.298 229.396Z" fill="#EE781D"/>
<path d="M624.298 317.406H507.418C504.235 317.406 501.183 316.142 498.933 313.891C496.682 311.641 495.418 308.589 495.418 305.406V240.756C495.418 237.574 496.682 234.521 498.933 232.271C501.183 230.02 504.235 228.756 507.418 228.756H624.298C627.481 228.756 630.533 230.02 632.783 232.271C635.034 234.521 636.298 237.574 636.298 240.756V305.346C636.306 306.927 636.001 308.494 635.402 309.957C634.802 311.42 633.92 312.75 632.805 313.87C631.689 314.991 630.364 315.88 628.904 316.487C627.444 317.094 625.879 317.406 624.298 317.406ZM507.418 230.016C504.567 230.019 501.832 231.15 499.812 233.162C497.792 235.175 496.651 237.905 496.638 240.756V305.346C496.641 308.204 497.777 310.945 499.798 312.966C501.819 314.987 504.56 316.124 507.418 316.126H624.298C627.157 316.126 629.899 314.99 631.921 312.969C633.942 310.947 635.078 308.205 635.078 305.346V240.756C635.078 237.897 633.942 235.155 631.921 233.134C629.899 231.112 627.157 229.976 624.298 229.976L507.418 230.016Z" fill="#2F2E41"/>
<path d="M577.08 301.16C592.203 294.998 599.468 277.742 593.305 262.618C587.142 247.494 569.886 240.23 554.763 246.393C539.639 252.555 532.375 269.811 538.537 284.935C544.7 300.059 561.956 307.323 577.08 301.16Z" fill="white"/>
<path d="M557.527 290.866V258.216L583.477 274.546L557.527 290.866Z" fill="#2F2E41"/>
<path d="M726.467 365.906H646.737V373.826H726.467V365.906Z" fill="#2F2E41"/>
<path d="M726.467 381.216H646.737V389.136H726.467V381.216Z" fill="#2F2E41"/>
<path d="M726.467 396.526H646.737V404.446H726.467V396.526Z" fill="#2F2E41"/>
<path opacity="0.1" d="M614.998 348.376H498.118C491.822 348.376 486.718 353.48 486.718 359.776V424.366C486.718 430.662 491.822 435.766 498.118 435.766H614.998C621.294 435.766 626.398 430.662 626.398 424.366V359.776C626.398 353.48 621.294 348.376 614.998 348.376Z" fill="black"/>
<path d="M624.298 343.296H507.418C501.122 343.296 496.018 348.4 496.018 354.696V419.286C496.018 425.582 501.122 430.686 507.418 430.686H624.298C630.594 430.686 635.698 425.582 635.698 419.286V354.696C635.698 348.4 630.594 343.296 624.298 343.296Z" fill="#EE781D"/>
<path d="M624.298 431.306H507.418C504.235 431.306 501.183 430.042 498.933 427.791C496.682 425.541 495.418 422.489 495.418 419.306V354.696C495.418 351.514 496.682 348.461 498.933 346.211C501.183 343.96 504.235 342.696 507.418 342.696H624.298C627.481 342.696 630.533 343.96 632.783 346.211C635.034 348.461 636.298 351.514 636.298 354.696V419.286C636.301 420.864 635.992 422.426 635.39 423.885C634.788 425.343 633.905 426.668 632.79 427.784C631.676 428.901 630.352 429.787 628.895 430.391C627.438 430.995 625.876 431.306 624.298 431.306ZM507.418 343.916C504.56 343.919 501.819 345.055 499.798 347.076C497.777 349.098 496.641 351.838 496.638 354.696V419.286C496.641 422.144 497.777 424.885 499.798 426.906C501.819 428.927 504.56 430.064 507.418 430.066H624.298C627.157 430.066 629.899 428.93 631.921 426.909C633.942 424.887 635.078 422.145 635.078 419.286V354.696C635.078 351.837 633.942 349.095 631.921 347.074C629.899 345.052 627.157 343.916 624.298 343.916H507.418Z" fill="#2F2E41"/>
<path d="M577.144 415.37C592.25 409.165 599.466 391.889 593.261 376.783C587.056 361.676 569.78 354.46 554.674 360.665C539.567 366.87 532.351 384.146 538.556 399.252C544.761 414.359 562.037 421.575 577.144 415.37Z" fill="white"/>
<path d="M557.527 405.066V372.396L583.477 388.726L557.527 405.066Z" fill="#2F2E41"/>
<path d="M326.958 420.756C326.958 420.756 327.898 335.436 312.728 303.836C312.728 303.836 297.818 268.946 323.728 256.836L332.928 301.626L344.928 383.156L363.258 414.156L366.098 420.476L326.958 420.756Z" fill="#EE781D"/>
<path opacity="0.2" d="M326.958 420.756C326.958 420.756 327.898 335.436 312.728 303.836C312.728 303.836 297.818 268.946 323.728 256.836L332.928 301.626L344.928 383.156L363.258 414.156L366.098 420.476L326.958 420.756Z" fill="black"/>
<path d="M351.917 407.496C351.917 407.496 332.327 407.816 332.327 377.786C332.327 377.786 329.327 347.786 324.847 322.786C324.255 319.466 323.419 316.194 322.347 312.996C319.427 304.276 313.217 283.636 314.857 269.906C315.205 267.183 316.193 264.581 317.74 262.312C319.287 260.044 321.349 258.174 323.757 256.856C338.367 248.746 382.827 229.696 430.487 265.056C430.487 265.056 434.707 267.826 437.237 301.326C437.237 301.326 440.397 346.516 438.507 372.746L351.917 407.496Z" fill="#EE781D"/>
<path opacity="0.4" d="M351.917 407.496C351.917 407.496 332.327 407.816 332.327 377.786C332.327 377.786 329.327 347.786 324.847 322.786C324.255 319.466 323.419 316.194 322.347 312.996C319.427 304.276 313.217 283.636 314.857 269.906C315.205 267.183 316.193 264.581 317.74 262.312C319.287 260.044 321.349 258.174 323.757 256.856C338.367 248.746 382.827 229.696 430.487 265.056C430.487 265.056 434.707 267.826 437.237 301.326C437.237 301.326 440.397 346.516 438.507 372.746L351.917 407.496Z" fill="white"/>
<path d="M307.078 236.306C307.078 236.306 308.688 248.216 309.368 254.856C309.368 254.856 327.918 250.046 343.718 250.276L310.518 273.626C310.518 273.626 292.888 274.546 291.968 265.626C291.968 265.626 292.288 254.476 295.668 247.906C295.668 247.906 299.758 243.186 298.608 241.356L307.078 236.306Z" fill="#F9B499"/>
<path d="M491.338 420.756L467.018 420.416L413.478 396.636L400.768 374.636L415.838 370.096L476.278 400.956C476.278 400.956 500.958 410.436 491.338 420.756Z" fill="#2F2E41"/>
<path opacity="0.2" d="M491.338 420.756L467.018 420.416L413.478 396.636L400.768 374.636L415.838 370.096L476.278 400.956C476.278 400.956 500.958 410.436 491.338 420.756Z" fill="black"/>
<path d="M409.478 275.116C409.478 275.116 416.578 269.286 420.968 278.306C421.289 278.993 421.563 279.702 421.788 280.426C428.12 300.267 432.685 320.63 435.428 341.276C435.769 343.627 435.909 346.002 435.848 348.376C435.811 349.511 435.547 350.626 435.071 351.657C434.595 352.688 433.917 353.612 433.078 354.376C423.228 363.276 413.468 356.466 413.468 355.966C413.468 355.966 412.978 347.486 414.858 342.466L410.378 326.196L409.478 275.116Z" fill="#EE781D"/>
<path opacity="0.2" d="M409.478 275.116C409.478 275.116 416.578 269.286 420.968 278.306C421.289 278.993 421.563 279.702 421.788 280.426C428.12 300.267 432.685 320.63 435.428 341.276C435.769 343.627 435.909 346.002 435.848 348.376C435.811 349.511 435.547 350.626 435.071 351.657C434.595 352.688 433.917 353.612 433.078 354.376C423.228 363.276 413.468 356.466 413.468 355.966C413.468 355.966 412.978 347.486 414.858 342.466L410.378 326.196L409.478 275.116Z" fill="black"/>
<path opacity="0.2" d="M336.118 251.276C336.118 251.276 330.878 279.276 338.618 287.276C338.618 287.276 309.908 364.916 351.348 374.156C351.348 374.156 345.108 393.636 345.108 405.866C347.272 406.792 349.572 407.36 351.918 407.546L397.788 319.736L353.348 252.756C353.348 252.756 351.098 244.536 336.118 251.276Z" fill="black"/>
<path d="M346.107 282.336C346.107 282.336 336.657 279.336 341.037 270.576C341.037 270.576 345.877 265.736 342.417 262.276C342.417 262.276 336.657 253.976 344.037 251.436C344.037 251.436 349.797 250.286 347.947 243.146C347.947 243.146 342.418 235.766 348.648 231.386C348.648 231.386 358.328 227.926 356.718 217.326C356.718 217.326 353.487 212.016 364.317 205.106C367.066 203.786 369.503 201.898 371.468 199.566C371.468 199.566 383.688 189.196 397.748 198.876C397.748 198.876 405.128 192.876 410.658 202.106C410.956 203.308 411.631 204.381 412.585 205.17C413.54 205.958 414.722 206.42 415.958 206.486C415.958 206.486 422.647 207.176 421.727 217.326C421.727 217.326 420.567 222.626 424.947 224.926C424.947 224.926 435.097 227.696 429.787 239.226C429.787 239.226 427.488 243.606 430.248 246.366C430.248 246.366 440.628 255.816 430.488 265.046C430.488 265.046 421.958 270.576 423.798 275.876C423.798 275.876 425.867 281.406 422.417 283.026L409.477 275.116L346.107 282.336Z" fill="#2F2E41"/>
<path d="M225.208 383.956L236.618 419.826L268.898 420.146L264.978 382.656L225.208 383.956Z" fill="#F9B499"/>
<path d="M295.308 383.636V420.476L268.898 420.146L264.978 382.656L295.308 383.636Z" fill="#F7A48B"/>
<path d="M274.108 382.986L274.768 420.476L268.898 420.146L264.978 382.656L274.108 382.986Z" fill="#F9B499"/>
<path d="M226.838 388.526L228.838 395.696C228.838 395.696 254.928 391.456 258.188 404.826L261.768 420.146H268.948L265.018 382.656L225.248 383.956L226.838 388.526Z" fill="#F7A48B"/>
<path d="M295.798 386.816C277.168 391.536 262.148 392.956 250.178 392.556C219.498 391.556 208.878 378.556 208.878 378.556C209.927 359.219 213.151 340.062 218.488 321.446V321.366C220.891 313.098 223.793 304.983 227.178 297.066C227.178 296.956 227.288 296.846 227.328 296.746C233.398 282.746 238.568 275.556 238.568 275.556C258.568 282.346 271.078 282.556 279.268 281.976C285.628 281.516 290.048 279.866 290.928 279.286C291.036 279.218 291.16 279.18 291.288 279.176C293.288 286.316 295.998 323.226 295.998 323.226L310.298 375.566C311.928 381.976 295.798 386.816 295.798 386.816Z" fill="#2F2E41"/>
<path opacity="0.2" d="M295.798 386.816C277.168 391.536 262.148 392.956 250.178 392.556C295.308 384.856 296.238 366.746 296.238 366.746C302.048 351.196 286.878 342.966 286.878 342.966C275.828 335.846 286.318 326.866 286.318 326.866C291.178 321.986 284.628 303.456 284.628 303.456L273.768 306.076L273.198 317.686C274.328 337.686 264.778 338.846 264.778 338.846C248.941 341.386 232.74 337.62 219.648 328.356C216.468 326.866 218.148 322.736 218.148 322.736C218.268 322.296 218.378 321.846 218.488 321.406V321.326C220.739 313.01 223.645 304.884 227.178 297.026C227.178 296.916 227.288 296.806 227.328 296.706C227.828 295.596 228.128 294.996 228.128 294.996L269.128 293.906C282.198 286.646 278.198 282.656 278.198 282.656C278.768 282.586 279.318 282.526 279.848 282.446C287.088 281.446 290.198 279.826 291.028 279.306L291.268 279.136C293.268 286.276 295.978 323.186 295.978 323.186L310.278 375.526C311.928 381.976 295.798 386.816 295.798 386.816Z" fill="black"/>
<path d="M298.607 241.346L307.077 236.346C307.077 236.346 301.357 196.506 288.537 196.736L298.607 241.346Z" fill="#EE781D"/>
<path d="M246.958 193.756C246.958 193.756 224.638 193.756 226.868 207.426C226.868 207.426 236.868 266.286 238.588 275.496C238.588 275.496 274.008 288.606 291.308 279.116C291.221 272.335 291.919 265.567 293.388 258.946C294.27 255.061 295.516 251.268 297.108 247.616C299.618 241.756 305.018 224.756 294.938 204.376C294.938 204.376 292.798 195.666 287.498 195.666L279.038 195.176L246.958 193.756Z" fill="#EE781D"/>
<path opacity="0.2" d="M298.837 214.556C298.837 214.556 301.397 235.636 292.957 236.726C292.244 236.805 291.536 236.925 290.837 237.086C288.367 237.726 281.587 239.156 267.697 240.196C267.697 240.196 255.797 240.656 258.547 244.326C258.547 244.326 257.397 245.466 268.847 247.526C268.847 247.526 287.797 247.976 283.037 266.986C282.817 267.906 281.137 276.296 271.037 282.476C271.037 282.476 283.537 283.476 291.277 279.136C291.217 274.933 291.468 270.732 292.027 266.566C292.838 259.977 294.6 253.54 297.257 247.456C299.417 242.756 303.127 231.216 298.837 214.556Z" fill="black"/>
<path d="M223.578 305.756C223.578 305.756 216.238 323.336 221.258 325.456C221.258 325.456 227.828 333.956 258.158 334.926C258.158 334.926 263.758 313.286 264.538 306.146L223.578 305.756Z" fill="#EE781D"/>
<path d="M271.297 299.556C270.945 309.743 269.781 319.885 267.817 329.886C267.817 329.886 268.007 335.486 258.157 334.886C258.157 334.886 263.567 312.886 264.537 306.106C264.537 306.126 267.017 303.816 271.297 299.556Z" fill="#EE781D"/>
<path opacity="0.2" d="M271.297 299.556C270.945 309.743 269.781 319.885 267.817 329.886C267.817 329.886 268.007 335.486 258.157 334.886C258.157 334.886 263.567 312.886 264.537 306.106C264.537 306.126 267.017 303.816 271.297 299.556Z" fill="black"/>
<path d="M413.578 237.526C413.59 241.32 412.979 245.09 411.768 248.686C411.161 250.502 410.377 252.254 409.428 253.916L409.238 254.256C408.858 254.896 408.458 255.516 408.028 256.106C407.082 257.456 405.992 258.7 404.778 259.816L404.698 259.896C402.112 262.317 398.844 263.884 395.338 264.386C394.715 264.466 394.087 264.506 393.458 264.506C387.678 264.506 382.458 261.236 378.798 256.016L378.738 255.936C377.47 254.118 376.426 252.154 375.628 250.086C374.076 246.082 373.289 241.821 373.308 237.526C373.308 228.186 376.848 219.956 382.228 215.106C386.658 212.876 393.228 212.586 402.618 218.476C404.153 217.996 405.768 217.833 407.368 217.996C408.569 219.547 409.599 221.223 410.438 222.996C410.738 223.626 411.018 224.266 411.268 224.916C412.828 228.936 413.612 233.215 413.578 237.526Z" fill="#F9B499"/>
<path d="M420.908 297.176C383.908 293.366 365.098 302.076 365.098 302.076L359.378 277.026C375.168 273.756 379.798 269.126 379.798 269.126L378.698 255.936L378.758 256.016C382.418 261.236 387.638 264.506 393.418 264.506C394.047 264.506 394.674 264.466 395.298 264.386L395.858 270.766C398.308 273.486 409.478 275.116 409.478 275.116C414.648 277.846 420.908 297.176 420.908 297.176Z" fill="#F9B499"/>
<path d="M395.588 266.816C387.588 267.226 379.248 261.916 379.248 261.916L378.758 256.016C382.418 261.236 387.638 264.506 393.418 264.506C394.053 264.507 394.688 264.467 395.318 264.386L395.588 266.816Z" fill="#F7A48B"/>
<path d="M379.388 264.756L379.798 269.106C379.798 269.106 391.508 273.196 395.858 270.746L395.588 267.476C395.588 267.476 388.238 269.126 379.388 264.756Z" fill="#EE781D"/>
<path d="M364.488 356.296C360.248 352.056 353.728 353.636 350.228 354.946C348.948 355.418 347.867 356.312 347.164 357.481C346.46 358.65 346.176 360.024 346.358 361.376C346.714 363.169 347.611 364.809 348.928 366.076C340.578 364.926 337.698 354.856 337.698 354.856C335.568 350.526 334.848 344.136 334.938 337.076C335.178 317.356 341.728 292.396 341.728 292.396C346.908 272.256 359.348 277.016 359.348 277.016C360.05 277.176 360.712 277.477 361.293 277.902C361.875 278.327 362.363 278.866 362.728 279.486C365.728 284.086 365.328 293.266 365.328 293.266C367.658 307.096 364.488 356.296 364.488 356.296Z" fill="#EE781D"/>
<path opacity="0.2" d="M364.487 356.296C360.247 352.056 353.727 353.636 350.227 354.946C348.947 355.418 347.866 356.313 347.163 357.481C346.459 358.65 346.175 360.024 346.357 361.376C346.714 363.178 347.623 364.824 348.957 366.086C340.607 364.936 337.727 354.866 337.727 354.866C335.597 350.536 334.877 344.146 334.967 337.086C335.597 340.326 339.037 354.806 349.527 351.986C349.527 351.986 358.017 349.696 361.267 332.616C361.894 329.319 362.228 325.972 362.267 322.616L362.797 279.516C365.797 284.116 365.397 293.296 365.397 293.296C367.657 307.096 364.487 356.296 364.487 356.296Z" fill="black"/>
<path d="M366.067 301.656C366.067 301.656 366.507 319.756 365.067 346.516C365.067 346.516 401.907 339.616 414.857 342.516C414.857 342.516 416.587 331.006 419.177 326.116C419.177 326.116 426.097 310.306 420.907 297.206C420.907 297.176 395.587 290.366 366.067 301.656Z" fill="#EE781D"/>
<path d="M414.197 362.876C414.197 362.876 400.197 375.766 376.437 374.316L364.487 356.316L365.067 346.536C365.067 346.536 398.067 339.186 414.857 342.536C414.857 342.486 412.137 352.956 414.197 362.876Z" fill="#F9B499"/>
<path d="M374.437 363.426C374.437 363.426 364.277 352.536 370.627 349.266C370.627 349.266 373.897 345.636 389.327 342.916C381.169 343.57 373.064 344.773 365.067 346.516L364.487 356.296L374.437 363.426Z" fill="#F7A48B"/>
<path d="M358.248 372.426C358.248 372.426 344.188 409.226 356.248 420.186L466.968 420.416C466.968 420.416 461.708 414.066 457.898 412.246L414.818 392.566C414.818 392.566 397.818 378.666 415.818 370.136L414.188 362.876C414.188 362.876 396.518 380.336 358.248 372.426Z" fill="#2F2E41"/>
<path d="M423.108 262.506C423.108 262.506 416.188 264.816 418.728 270.806C418.984 272.322 419.078 273.861 419.008 275.396C419.008 275.396 415.288 270.766 409.478 275.116C409.478 275.116 401.308 274.206 395.858 270.766L395.318 264.386V264.316C398.824 263.84 402.098 262.297 404.698 259.896L404.778 259.816C406.551 258.212 408.056 256.335 409.238 254.256L409.428 253.916C411.213 250.593 412.427 246.992 413.018 243.266C413.018 243.266 414.878 235.566 411.238 224.916C411.078 224.416 410.898 223.906 410.698 223.386C410.698 223.386 410.598 223.236 410.408 222.996C409.408 221.786 406.118 218.396 401.578 221.346C401.578 221.346 394.288 215.516 386.168 218.346C383.544 219.284 381.267 220.999 379.642 223.262C378.016 225.525 377.118 228.23 377.068 231.016L376.798 241.516L375.588 250.126L375.538 250.486C375.538 250.486 377.758 254.736 378.538 256.236L379.768 269.166C373.686 273.386 366.686 276.094 359.348 277.066C359.348 277.066 357.348 275.876 353.228 276.606C353.228 276.606 358.988 272.456 355.998 263.466C355.998 263.466 352.528 257.936 359.678 253.556C359.678 253.556 365.678 250.786 361.988 246.176C361.988 246.176 356.918 237.176 366.138 232.576C366.138 232.576 373.518 229.816 374.198 224.276C374.198 224.276 376.048 217.456 381.858 214.536C386.288 212.316 393.348 212.006 402.728 217.896C404.296 217.489 405.925 217.363 407.538 217.526C410.208 217.846 413.038 219.826 414.418 224.586C414.858 226.071 414.858 227.651 414.418 229.136C414.046 230.061 413.994 231.084 414.269 232.042C414.545 233 415.132 233.839 415.938 234.426C415.938 234.426 419.628 236.496 418.708 245.256C418.414 246.702 418.565 248.204 419.141 249.562C419.718 250.921 420.693 252.073 421.938 252.866C421.938 252.866 427.948 259.506 423.108 262.506Z" fill="#2F2E41"/>
<path opacity="0.2" d="M423.108 262.506C423.108 262.506 416.188 264.816 418.728 270.806C418.984 272.322 419.078 273.861 419.008 275.396C419.008 275.396 415.288 270.766 409.478 275.116C409.478 275.116 401.308 274.206 395.858 270.766L395.318 264.386V264.316C398.824 263.84 402.098 262.297 404.698 259.896L404.778 259.816C406.551 258.212 408.056 256.335 409.238 254.256L409.428 253.916C411.213 250.593 412.427 246.992 413.018 243.266C413.018 243.266 414.878 235.566 411.238 224.916C411.078 224.416 410.898 223.906 410.698 223.386C410.698 223.386 410.598 223.236 410.408 222.996C409.408 221.786 406.118 218.396 401.578 221.346C401.578 221.346 394.288 215.516 386.168 218.346C383.544 219.284 381.267 220.999 379.642 223.262C378.016 225.525 377.118 228.23 377.068 231.016L376.798 241.516L375.588 250.126L375.538 250.486C375.538 250.486 377.758 254.736 378.538 256.236L379.768 269.166C373.686 273.386 366.686 276.094 359.348 277.066C359.348 277.066 357.348 275.876 353.228 276.606C353.228 276.606 358.988 272.456 355.998 263.466C355.998 263.466 352.528 257.936 359.678 253.556C359.678 253.556 365.678 250.786 361.988 246.176C361.988 246.176 356.918 237.176 366.138 232.576C366.138 232.576 373.518 229.816 374.198 224.276C374.198 224.276 376.048 217.456 381.858 214.536C386.288 212.316 393.348 212.006 402.728 217.896C404.296 217.489 405.925 217.363 407.538 217.526C410.208 217.846 413.038 219.826 414.418 224.586C414.858 226.071 414.858 227.651 414.418 229.136C414.046 230.061 413.994 231.084 414.269 232.042C414.545 233 415.132 233.839 415.938 234.426C415.938 234.426 419.628 236.496 418.708 245.256C418.414 246.702 418.565 248.204 419.141 249.562C419.718 250.921 420.693 252.073 421.938 252.866C421.938 252.866 427.948 259.506 423.108 262.506Z" fill="black"/>
<path d="M413.897 252.316C413.897 253.418 413.46 254.474 412.682 255.254C411.904 256.034 410.849 256.474 409.747 256.476C409.155 256.473 408.569 256.347 408.027 256.106C408.457 255.516 408.857 254.896 409.237 254.256L409.427 253.916C410.328 252.254 411.068 250.509 411.637 248.706C412.298 249.057 412.854 249.575 413.251 250.208C413.648 250.842 413.871 251.569 413.897 252.316Z" fill="#EE781D"/>
<path d="M373.867 382.806C373.867 382.806 370.867 395.236 358.867 396.526C358.867 396.526 364.867 409.386 383.307 420.106" stroke="white" stroke-miterlimit="10"/>
<path d="M337.907 270.076L337.557 269.546C337.697 269.456 340.867 267.296 339.197 262.546C339.117 262.406 336.447 257.806 337.767 253.756C338.121 252.749 338.692 251.833 339.441 251.072C340.189 250.312 341.096 249.726 342.097 249.356C342.832 249.144 343.516 248.785 344.108 248.302C344.701 247.82 345.19 247.222 345.547 246.546C346.107 245.156 345.817 243.456 344.667 241.496C344.667 241.496 340.377 235.496 346.357 229.676L351.357 225.346C354.177 222.914 355.923 219.468 356.217 215.756V215.586H356.857V215.756C356.549 219.627 354.728 223.22 351.787 225.756L346.787 230.086C341.227 235.526 345.037 240.866 345.207 241.086C346.467 243.266 346.774 245.146 346.127 246.726C345.747 247.491 345.211 248.167 344.553 248.712C343.895 249.256 343.13 249.656 342.307 249.886C341.399 250.225 340.577 250.758 339.898 251.449C339.219 252.141 338.7 252.972 338.377 253.886C337.137 257.676 339.747 262.176 339.777 262.216C341.637 267.566 337.947 270.056 337.907 270.076Z" fill="#2F2E41"/>
<path opacity="0.2" d="M373.078 420.296C373.078 420.296 358.588 418.046 352.348 395.826C352.348 395.826 347.998 411.096 356.288 420.186L373.078 420.296Z" fill="black"/>
<path d="M425.768 277.836C425.415 277.302 425.189 276.695 425.106 276.061C425.023 275.427 425.085 274.783 425.288 274.176C425.956 272.749 427.16 271.643 428.638 271.096C432.968 268.146 435.568 264.476 436.378 260.186C437.818 252.486 432.958 245.316 432.908 245.246C429.338 240.036 428.228 232.766 428.218 232.696L428.848 232.596C428.848 232.676 429.948 239.796 433.428 244.886C433.428 244.956 438.488 252.336 436.998 260.296C436.158 264.776 433.458 268.596 428.998 271.646H428.928C427.624 272.148 426.554 273.118 425.928 274.366C425.762 274.887 425.715 275.439 425.791 275.981C425.867 276.523 426.064 277.041 426.368 277.496L425.768 277.836Z" fill="#2F2E41"/>
<path d="M228.018 200.936C228.018 200.936 229.758 188.486 241.018 188.486C241.018 188.486 231.718 133.236 251.688 123.346C251.688 123.346 275.778 110.446 289.688 125.626C291.409 127.51 292.665 129.77 293.358 132.226C295.138 138.566 298.888 154.816 299.768 181.896L300.098 209.266C300.098 209.266 295.098 195.066 284.838 195.656L279.068 195.176C279.068 195.176 271.378 196.176 272.368 187.366C272.368 187.366 282.708 191.196 291.048 178.986C291.048 178.986 299.868 167.596 295.048 148.786C295.048 148.786 291.048 134.206 279.448 132.266C279.448 132.266 261.808 127.466 257.058 153.616L255.058 161.146L255.888 190.716L246.958 193.756C246.958 193.756 232.948 193.626 228.018 200.936Z" fill="#2F2E41"/>
<path d="M255.018 161.146L255.848 190.716L246.958 193.756C246.958 193.756 249.738 202.616 257.328 207.126C259.818 208.656 262.708 209.407 265.628 209.284C268.548 209.161 271.365 208.17 273.718 206.436C276.478 204.316 278.918 200.846 279.038 195.156C279.038 195.156 271.218 195.156 272.338 187.346L272.898 164.196L255.018 161.146Z" fill="#F9B499"/>
<path d="M255.018 165.886L255.568 181.786C255.568 181.786 265.058 189.876 272.028 189.316L272.588 178.156L257.018 166.756L255.018 165.886Z" fill="#F7A48B"/>
<path d="M276.388 187.916C287.555 187.916 296.608 175.367 296.608 159.886C296.608 144.406 287.555 131.856 276.388 131.856C265.221 131.856 256.168 144.406 256.168 159.886C256.168 175.367 265.221 187.916 276.388 187.916Z" fill="#F9B499"/>
<path opacity="0.2" d="M291.788 178.016L292.788 198.346C290.853 196.917 288.591 195.996 286.208 195.666L279.018 195.176C279.018 195.176 271.278 195.176 272.318 187.366C272.338 187.366 283.648 191.456 291.788 178.016Z" fill="black"/>
<path opacity="0.2" d="M254.938 162.566L255.878 190.716L249.878 192.716L249.318 164.616C249.318 164.616 245.088 154.616 258.428 146.856C258.448 146.876 257.018 149.926 254.938 162.566Z" fill="black"/>
<path d="M293.758 145.386C291.618 131.536 280.598 130.386 280.598 130.386C262.998 128.116 258.598 146.586 258.598 146.586C258.598 146.586 263.168 138.586 280.028 139.706C280.068 139.686 290.858 137.826 293.758 145.386Z" fill="#2F2E41"/>
<path opacity="0.4" d="M293.758 145.386C291.618 131.536 280.598 130.386 280.598 130.386C262.998 128.116 258.598 146.586 258.598 146.586C258.598 146.586 263.168 138.586 280.028 139.706C280.068 139.686 290.858 137.826 293.758 145.386Z" fill="black"/>
<path d="M256.998 166.726C259.616 166.726 261.738 163.789 261.738 160.166C261.738 156.543 259.616 153.606 256.998 153.606C254.38 153.606 252.258 156.543 252.258 160.166C252.258 163.789 254.38 166.726 256.998 166.726Z" fill="#F9B499"/>
<path d="M280.017 142.926C279.857 142.676 276.327 137.506 271.457 140.866C270.355 141.651 269.458 142.692 268.845 143.898C268.232 145.105 267.921 146.443 267.937 147.796C267.937 153.666 266.677 165.916 255.107 161.146C255.107 161.146 258.107 158.636 258.107 151.646C258.107 151.646 257.707 135.366 268.567 133.816C268.527 133.816 278.017 133.046 280.017 142.926Z" fill="#2F2E41"/>
<path opacity="0.2" d="M280.017 142.926C279.857 142.676 276.327 137.506 271.457 140.866C270.355 141.651 269.458 142.692 268.845 143.898C268.232 145.105 267.921 146.443 267.937 147.796C267.937 153.666 266.677 165.916 255.107 161.146C255.107 161.146 258.107 158.636 258.107 151.646C258.107 151.646 257.707 135.366 268.567 133.816C268.527 133.816 278.017 133.046 280.017 142.926Z" fill="black"/>
<path d="M279.958 142.926C279.798 142.676 276.268 137.506 271.398 140.866C270.295 141.651 269.399 142.692 268.786 143.898C268.173 145.105 267.861 146.443 267.878 147.796C267.878 153.666 266.618 165.916 255.048 161.146L255.498 161.046C257.87 160.481 260.009 159.196 261.621 157.365C263.233 155.535 264.238 153.251 264.498 150.826C265.048 145.996 266.718 136.506 274.558 137.356C274.518 137.356 277.018 137.306 279.958 142.926Z" fill="#2F2E41"/>
<path d="M280.018 142.926C280.018 142.926 283.708 124.186 298.018 131.486C298.018 131.486 305.378 134.786 304.218 147.196C304.218 147.196 303.448 157.076 296.658 159.196C296.592 153.545 295.266 147.98 292.778 142.906L280.018 142.926Z" fill="#2F2E41"/>
<path opacity="0.2" d="M280.018 142.926C280.018 142.926 283.708 124.186 298.018 131.486C298.018 131.486 305.378 134.786 304.218 147.196C304.218 147.196 303.448 157.076 296.658 159.196C296.592 153.545 295.266 147.98 292.778 142.906L280.018 142.926Z" fill="black"/>
<path d="M279.958 142.926C279.958 142.926 290.628 132.846 297.028 141.376C297.028 141.376 300.318 146.026 296.248 153.976C296.248 153.976 295.118 147.976 293.068 144.176C292.871 143.818 292.581 143.52 292.229 143.312C291.878 143.105 291.476 142.996 291.068 142.996L279.958 142.926Z" fill="#2F2E41"/>
<path d="M205.388 224.186C205.388 224.186 220.458 226.136 223.248 238.686C223.248 238.686 244.998 215.816 238.868 202.426C238.868 202.426 233.568 192.666 223.518 203.546L205.388 224.186Z" fill="#EE781D"/>
<path opacity="0.2" d="M216.248 228.616C216.248 228.616 221.138 230.786 223.248 238.686C223.248 238.686 240.098 220.736 239.898 207.596C239.898 207.596 230.198 223.756 216.248 228.616Z" fill="black"/>
<path d="M223.248 238.686C201.738 265.686 194.928 263.686 194.928 263.686C182.928 262.596 143.198 208.956 143.198 208.956C138.5 205.842 134.041 202.383 129.858 198.606C128.549 196.842 127.508 194.894 126.768 192.826C122.768 181.336 132.858 173.826 132.858 173.826C137.478 167.026 146.738 178.726 146.738 178.726C153.818 178.456 157.908 203.726 157.908 203.726C169.258 213.186 188.108 234.366 192.908 239.726C193.038 239.87 193.2 239.983 193.381 240.054C193.562 240.125 193.756 240.154 193.95 240.138C194.144 240.121 194.331 240.06 194.497 239.959C194.663 239.858 194.804 239.72 194.908 239.556C199.668 232.056 205.418 224.096 205.418 224.096C214.418 225.506 218.938 229.806 221.168 233.466C221.368 233.646 221.318 233.636 221.318 233.636C221.518 233.946 221.688 234.256 221.848 234.556C222.542 235.845 223.015 237.241 223.248 238.686Z" fill="#F9B499"/>
<path d="M223.248 238.686C201.738 265.686 194.928 263.686 194.928 263.686C182.928 262.596 143.198 208.956 143.198 208.956C138.5 205.842 134.041 202.383 129.858 198.606C128.549 196.842 127.508 194.894 126.768 192.826C128.958 195.176 138.818 205.496 144.828 208.136C144.828 208.136 189.208 265.866 197.658 257.136C197.658 257.136 207.398 250.636 221.218 233.866L221.338 233.726L221.818 234.636C222.123 235.207 222.387 235.798 222.608 236.406C222.883 237.147 223.097 237.91 223.248 238.686Z" fill="#F7A48B"/>
<path d="M223.577 305.756C224.35 303.83 225.154 301.876 225.987 299.896C226.647 298.316 227.327 296.766 227.987 295.226C230.107 296.596 232.367 298.226 235.147 298.996C241.147 300.616 251.967 301.696 271.287 299.576C271.287 299.576 254.287 319.666 240.757 316.766C240.767 316.756 230.537 317.136 223.577 305.756Z" fill="#EE781D"/>
<path opacity="0.4" d="M223.577 305.756C224.35 303.83 225.154 301.876 225.987 299.896C226.647 298.316 227.327 296.766 227.987 295.226C230.107 296.596 232.367 298.226 235.147 298.996C241.147 300.616 251.967 301.696 271.287 299.576C271.287 299.576 254.287 319.666 240.757 316.766C240.767 316.756 230.537 317.136 223.577 305.756Z" fill="white"/>
<path d="M292.207 283.926C279.697 291.046 263.877 293.256 259.017 293.766C258.136 293.889 257.247 293.943 256.357 293.926C236.177 293.086 231.047 288.536 231.047 288.536L227.947 295.146C227.947 295.146 234.137 303.436 265.177 300.436C265.177 300.436 282.237 299.526 293.127 291.356C292.987 289.806 292.807 288.216 292.577 286.566C292.457 285.676 292.347 284.756 292.207 283.926Z" fill="#E6E7E8"/>
<path d="M375.519 250.462C378.068 249.173 378.634 245.164 376.785 241.507C374.937 237.85 371.372 235.93 368.824 237.218C366.276 238.506 365.709 242.515 367.558 246.173C369.407 249.83 372.971 251.75 375.519 250.462Z" fill="#F9B499"/>
<path d="M373.948 256.466C376.24 256.466 378.098 254.608 378.098 252.316C378.098 250.024 376.24 248.166 373.948 248.166C371.656 248.166 369.798 250.024 369.798 252.316C369.798 254.608 371.656 256.466 373.948 256.466Z" fill="#EE781D"/>
<path d="M458.848 417.516C458.848 417.516 457.028 422.806 444.098 416.676L443.698 416.476L442.138 415.696C442.138 415.696 441.138 414.286 439.688 412.026C436.468 407.026 430.978 398.076 428.738 391.216L418.488 362.446L414.268 350.606C414.018 349.915 413.913 349.18 413.962 348.447C414.01 347.714 414.209 346.998 414.548 346.346C415.193 345.116 416.109 344.05 417.228 343.226C418.74 342.149 420.522 341.513 422.375 341.392C424.227 341.27 426.078 341.666 427.718 342.536C429.005 343.195 430.169 344.071 431.158 345.126C431.796 345.818 432.247 346.661 432.468 347.576L442.528 389.946C442.528 389.946 460.658 409.166 458.848 417.516Z" fill="#F9B499"/>
<path d="M444.097 416.676C444.037 416.676 443.547 416.446 443.487 416.456L442.137 415.696L439.687 412.026C436.467 407.026 430.977 398.076 428.737 391.216L418.487 362.446L430.697 394.056C430.697 394.056 445.517 395.816 449.097 407.546C449.405 408.539 449.49 409.587 449.347 410.616C449.017 412.646 447.957 415.866 444.097 416.676Z" fill="#F7A48B"/>
<path d="M443.068 415.596C426.948 420.486 408.238 405.806 408.238 405.806L348.958 366.086C347.641 364.819 346.744 363.179 346.388 361.386C346.206 360.034 346.49 358.66 347.193 357.491C347.897 356.323 348.978 355.428 350.258 354.956C353.758 353.646 360.258 352.066 364.518 356.306L414.888 392.576C424.181 392.58 433.239 395.497 440.788 400.916C454.578 408.396 443.068 415.596 443.068 415.596Z" fill="#F9B499"/>
<path d="M146.737 178.756C146.737 178.756 145.347 186.756 151.307 198.216" stroke="#F7A48B" stroke-miterlimit="10"/>
<path d="M126.718 184.286L140.128 198.696" stroke="#F7A48B" stroke-miterlimit="10"/>
<path d="M128.447 179.066L144.597 195.216" stroke="#F7A48B" stroke-miterlimit="10"/>
<path d="M132.857 173.836L145.837 189.256" stroke="#F7A48B" stroke-miterlimit="10"/>
<path d="M148.097 167.036C148.097 167.036 140.747 162.676 145.377 149.036C145.377 149.036 159.807 149.576 164.707 157.746C164.707 157.756 155.727 171.656 148.097 167.036Z" fill="#EE781D"/>
<mask id="mask0_321_155" style="mask-type:luminance" maskUnits="userSpaceOnUse" x="143" y="149" width="22" height="19">
<path d="M148.097 167.036C148.097 167.036 140.747 162.676 145.377 149.036C145.377 149.036 159.807 149.576 164.707 157.746C164.707 157.756 155.727 171.656 148.097 167.036Z" fill="white"/>
</mask>
<g mask="url(#mask0_321_155)">
<path opacity="0.2" d="M139.927 156.956C139.927 156.956 151.637 153.416 161.167 164.856L151.907 172.206L139.907 163.206L139.927 156.956Z" fill="black"/>
</g>
<path d="M128.348 217.126C128.224 217.127 128.102 217.103 127.988 217.056C127.76 216.951 127.58 216.764 127.484 216.533C127.388 216.301 127.382 216.042 127.468 215.806L148.748 164.426C148.885 164.264 149.069 164.15 149.276 164.1C149.482 164.05 149.698 164.067 149.894 164.148C150.09 164.229 150.255 164.371 150.365 164.552C150.476 164.733 150.526 164.945 150.508 165.156L129.228 216.536C129.157 216.712 129.036 216.862 128.879 216.967C128.722 217.072 128.537 217.128 128.348 217.126Z" fill="#2F2E41"/>
</svg>
