<svg width="301" height="568" viewBox="0 0 301 568" fill="none" xmlns="http://www.w3.org/2000/svg">
<path d="M86.9708 160.012C81.7753 153.942 74.4319 151.702 70.5692 155.009C66.7066 158.316 67.7878 165.917 72.9859 171.988C75.0291 174.442 77.6302 176.371 80.5717 177.614L102.91 203.056L114.626 192.319L91.3604 168.377C90.5863 165.278 89.0811 162.41 86.9708 160.012V160.012Z" fill="#FFB6B6"/>
<path d="M254.64 191.037C254.64 191.037 259.526 213.401 240.134 220.533C220.741 227.664 170.487 255.044 166.767 253.79C163.047 252.535 150.878 258.661 136.514 245.593C122.15 232.525 87.4492 193.127 87.4492 193.127L101.723 173.742L155.464 210.866C155.464 210.866 156.613 210.525 161.708 209.997C166.802 209.469 162.818 212.683 170.786 206.256C178.755 199.828 229.613 176.795 229.613 176.795C229.613 176.795 244.538 169.399 254.64 191.037L254.64 191.037V191.037V191.037Z" fill="#409CB5"/>
<path d="M127.829 503.008L135.73 528.466L113.784 543.39L97.9824 529.344C97.9824 529.344 104.127 507.398 101.494 502.131L127.829 503.008Z" fill="#FFB6B6"/>
<path d="M239.316 142.212L251.903 169.978L215.075 192.871L212.98 159.769L239.316 142.212Z" fill="#FFB6B6"/>
<path opacity="0.1" d="M239.316 142.212L251.903 169.978L215.075 192.871L212.98 159.769L239.316 142.212Z" fill="black"/>
<path d="M224.841 166.966C239.611 166.966 251.584 154.992 251.584 140.222C251.584 125.453 239.611 113.479 224.841 113.479C210.071 113.479 198.098 125.453 198.098 140.222C198.098 154.992 210.071 166.966 224.841 166.966Z" fill="#FFB6B6"/>
<path d="M214.736 186.982L252.483 161.525L246.338 376.598C246.338 376.598 215.175 322.61 191.473 319.977C191.473 319.977 194.106 313.832 195.862 310.32C197.618 306.809 200.251 289.252 200.251 289.252L212.541 194.444L214.736 186.982V186.982V186.982Z" fill="white"/>
<path d="M245.022 409.517L211.664 291.885C211.664 291.885 216.931 197.077 252.484 161.525L260.824 174.253C260.824 174.253 269.07 175.477 267.58 181.01C266.091 186.543 300.327 390.205 300.327 390.205H264.843C264.843 390.205 261.702 409.517 245.022 409.517Z" fill="#409CB5"/>
<path d="M214.736 186.982V183.471C214.736 183.471 198.496 184.788 197.618 194.444C196.74 204.1 189.717 241.848 196.74 264.672L187.961 278.718L181.816 312.076L201.129 317.343L211.663 236.335C211.663 236.335 218.686 193.566 214.736 186.982V186.982V186.982Z" fill="#409CB5"/>
<path d="M245.899 354.213C245.899 354.213 260.823 397.227 229.22 398.105C197.618 398.983 148.385 398.983 148.385 398.983L123.878 412.151L130.901 507.837L81.7414 508.714C81.7414 508.714 65.9401 391.082 79.9857 377.037C94.0313 362.991 134.412 348.068 134.412 348.068L180.939 324.366L194.023 308.482L245.899 354.213Z" fill="#409CB5"/>
<path d="M247.691 155.818C249.556 155.156 267.012 134.697 252.483 121.143C252.483 121.143 246.822 104.586 224.245 106.323C201.668 108.059 195.59 120.408 195.59 126.825C195.59 133.241 201.568 140.456 201.568 140.456C201.568 140.456 197.327 122.821 206.878 123.69C216.43 124.558 213.825 128.031 220.772 126.295C227.719 124.558 234.665 127.163 234.665 127.163L241.612 129.768V140.363C241.612 140.363 244.641 137.932 244.863 140.363C245.086 142.793 247.691 155.818 247.691 155.818V155.818Z" fill="#409CB5"/>
<path d="M96.6648 372.648L95.787 399.861L61.5508 393.716C61.5508 393.716 76.2509 369.523 74.1679 362.746L96.6648 372.648Z" fill="#FFB6B6"/>
<path d="M93.1536 393.716C93.1536 393.716 99.2986 393.716 99.2986 397.227C99.2986 400.739 108.955 427.952 90.5201 428.83C72.0852 429.708 72.963 426.197 72.963 426.197C72.963 426.197 21.1699 449.898 2.735 414.784C2.735 414.784 -1.65426 406.006 8.87995 404.25C19.4142 402.495 61.551 387.796 61.551 387.796C61.551 387.796 86.1308 397.227 93.1536 393.716Z" fill="#409CB5"/>
<path d="M128.705 528.466C128.705 528.466 134.85 521.022 135.728 521.671C136.606 522.321 155.919 544.267 142.751 550.412C129.583 556.557 122.56 559.191 122.56 559.191L119.049 553.924C119.049 553.924 92.7134 579.381 52.3323 561.824C52.3323 561.824 48.8209 553.924 56.7216 552.168C64.6222 550.412 97.9805 523.662 97.9805 523.662C97.9805 523.662 112.026 533.733 119.049 531.978C126.072 530.222 128.705 528.466 128.705 528.466Z" fill="#409CB5"/>
<path d="M191.473 317.343C191.473 317.343 109.394 275.645 102.371 275.645C95.3482 275.645 81.9247 278.534 78.9801 292.013C76.0355 305.492 58.4785 370.453 58.4785 370.453L101.493 380.987L118.172 334.461L145.386 359.041L191.473 331.558V317.343Z" fill="#409CB5"/>
<path d="M152.824 301.235C144.919 302.395 139.109 307.415 139.849 312.445C140.588 317.476 147.595 320.613 155.503 319.451C158.668 319.03 161.687 317.858 164.306 316.031L197.739 310.692L194.9 295.056L162.242 301.98C159.207 300.983 155.978 300.727 152.824 301.235V301.235Z" fill="#FFB6B6"/>
<path d="M268.445 175.907C268.445 175.907 289.972 183.694 285.669 203.903C281.366 224.112 277.746 281.226 274.702 283.705C271.657 286.184 270.353 299.746 251.64 304.933C232.928 310.121 179.229 333.082 179.229 333.082L172.303 296.072L232.359 270.39C232.359 270.39 232.683 269.235 234.952 264.644C237.22 260.052 237.816 265.136 236.625 254.968C235.434 244.8 243.055 189.491 243.055 189.491C243.055 189.491 244.752 172.921 268.445 175.907L268.445 175.907V175.907Z" fill="#409CB5"/>
<path d="M74.0612 12.2338C73.9528 12.3391 73.8528 12.45 73.7456 12.5562C57.0041 -4.05669 30.0422 -4.20284 13.1215 12.2275C-3.85927 28.7226 -4.4331 55.8012 11.8337 73.0009L11.8231 73.0112L12.2282 73.4283L72.1306 135.105L134.225 74.7978L134.052 74.6201C134.156 74.5207 134.265 74.4285 134.368 74.3278C151.515 57.6743 151.915 30.2739 135.262 13.127C118.608 -4.01975 91.2079 -4.41968 74.0612 12.2337L74.0612 12.2338H74.0612Z" fill="#4469A0"/>
</svg>
