<svg width="488" height="452" viewBox="0 0 488 452" fill="none" xmlns="http://www.w3.org/2000/svg">
<path d="M0 246.214V264.406C5.30432e-06 267.874 1.37802 271.201 3.83089 273.654C6.28376 276.107 9.61057 277.485 13.0794 277.485H59.2454C60.9631 277.485 62.6639 277.823 64.2507 278.481C65.8376 279.138 67.2795 280.101 68.494 281.316C69.7085 282.53 70.672 283.972 71.3293 285.559C71.9866 287.146 72.3249 288.847 72.3249 290.564V308.756C72.3249 310.473 71.9866 312.174 71.3293 313.761C70.672 315.348 69.7085 316.79 68.494 318.004C67.2795 319.219 65.8376 320.182 64.2507 320.839C62.6639 321.497 60.963 321.835 59.2454 321.835H57.7878C54.3189 321.835 50.9921 323.213 48.5392 325.666C46.0863 328.119 44.7083 331.446 44.7083 334.914V353.106C44.7083 354.823 45.0467 356.524 45.704 358.111C46.3613 359.698 47.3247 361.14 48.5392 362.354C49.7538 363.569 51.1956 364.532 52.7825 365.189C54.3694 365.847 56.0702 366.185 57.7878 366.185L419.695 366.185C421.413 366.185 423.113 365.847 424.7 365.19C426.287 364.532 427.729 363.569 428.944 362.354C430.158 361.14 431.121 359.698 431.779 358.111C432.436 356.524 432.774 354.823 432.774 353.106V334.915C432.774 333.197 432.436 331.496 431.779 329.909C431.121 328.323 430.158 326.881 428.944 325.666C427.729 324.452 426.287 323.488 424.7 322.831C423.113 322.174 421.413 321.835 419.695 321.835C416.226 321.835 412.899 320.457 410.446 318.004C407.993 315.551 406.616 312.225 406.616 308.756V290.565C406.616 287.096 407.993 283.769 410.446 281.316C412.899 278.863 416.226 277.485 419.695 277.485H470.274C471.992 277.485 473.693 277.147 475.28 276.49C476.867 275.832 478.308 274.869 479.523 273.654C480.737 272.44 481.701 270.998 482.358 269.411C483.016 267.824 483.354 266.123 483.354 264.406V246.215C483.354 242.746 481.976 239.419 479.523 236.966C477.07 234.513 473.743 233.135 470.274 233.135H450.428C448.71 233.135 447.009 232.797 445.422 232.139C443.836 231.482 442.394 230.519 441.179 229.304C439.965 228.09 439.001 226.648 438.344 225.061C437.687 223.474 437.348 221.773 437.348 220.056V201.864C437.348 198.396 438.726 195.069 441.179 192.616C443.632 190.163 446.959 188.785 450.428 188.785H450.476C453.945 188.785 457.271 187.407 459.724 184.954C462.177 182.501 463.555 179.174 463.555 175.706V157.514C463.555 154.046 462.177 150.719 459.724 148.266C457.271 145.813 453.945 144.435 450.476 144.435H447.604C444.135 144.435 440.809 143.057 438.356 140.604C435.903 138.151 434.525 134.824 434.525 131.356V113.164C434.525 109.695 435.903 106.369 438.356 103.916C440.809 101.463 444.135 100.085 447.604 100.085H474.729C478.198 100.085 481.525 98.7068 483.977 96.254C486.43 93.8011 487.808 90.4743 487.808 87.0054V68.8142C487.808 67.0966 487.47 65.3958 486.813 63.809C486.155 62.2221 485.192 60.7802 483.977 59.5657C482.763 58.3511 481.321 57.3877 479.734 56.7304C478.147 56.0731 476.447 55.7348 474.729 55.7348L50.7659 55.7346C47.297 55.7346 43.9702 57.1126 41.5173 59.5655C39.0645 62.0184 37.6865 65.3452 37.6865 68.8141V87.0052C37.6865 88.7229 38.0248 90.4236 38.6821 92.0105C39.3394 93.5974 40.3028 95.0393 41.5173 96.2538C42.7319 97.4683 44.1737 98.4318 45.7606 99.0891C47.3475 99.7464 49.0483 100.085 50.7659 100.085H62.1064C65.5753 100.085 68.9021 101.463 71.355 103.916C73.8079 106.368 75.1859 109.695 75.1859 113.164V131.355C75.1859 133.073 74.8476 134.774 74.1903 136.361C73.533 137.948 72.5695 139.389 71.355 140.604C70.1404 141.819 68.6986 142.782 67.1117 143.439C65.5248 144.097 63.824 144.435 62.1064 144.435H35.3666C31.8977 144.435 28.5709 145.813 26.118 148.266C23.6651 150.719 22.2871 154.045 22.2871 157.514V175.705C22.2871 177.423 22.6254 179.124 23.2827 180.711C23.94 182.298 24.9034 183.739 26.118 184.954C27.3325 186.168 28.7744 187.132 30.3613 187.789C31.9481 188.447 33.6489 188.785 35.3665 188.785H43.4782C46.9471 188.785 50.2739 190.163 52.7267 192.616C55.1796 195.069 56.5576 198.395 56.5576 201.864V220.056C56.5576 221.773 56.2193 223.474 55.562 225.061C54.9047 226.648 53.9413 228.09 52.7268 229.304C51.5122 230.519 50.0703 231.482 48.4835 232.139C46.8966 232.797 45.1958 233.135 43.4782 233.135H13.0795C11.3619 233.135 9.66109 233.473 8.07421 234.131C6.48733 234.788 5.04546 235.751 3.83092 236.966C2.61637 238.18 1.65294 239.622 0.995628 241.209C0.338319 242.796 3.93964e-06 244.497 0 246.214Z" fill="#DBE8EC"/>
<path d="M387.336 112.797H347.549V131.462H387.336V112.797Z" fill="#B9D4DB"/>
<path d="M387.336 156.866H347.549V175.531H387.336V156.866Z" fill="#B9D4DB"/>
<path d="M365.443 134.826H325.656V153.491H365.443V134.826Z" fill="#B9D4DB"/>
<path d="M408.595 134.826H368.808V153.491H408.595V134.826Z" fill="#B9D4DB"/>
<path d="M92.4483 112.796H132.235V94.131H92.4483V112.796Z" fill="#B9D4DB"/>
<path d="M112.341 90.766H152.128V72.101H112.341V90.766Z" fill="#B9D4DB"/>
<path d="M69.1905 90.766H108.978V72.101H69.1905V90.766Z" fill="#B9D4DB"/>
<path d="M375.103 296.54C369.624 296.262 366.319 289.876 365.557 288.401C364.384 286.242 363.72 283.843 363.617 281.388C363.525 278.273 364.524 277.61 364.093 275.107C363.606 272.28 362.065 271.572 360.473 268.515C359.16 265.809 358.447 262.85 358.383 259.843C357.895 254.986 358.839 250.093 361.098 245.766C370.321 229.162 375.688 219.956 375.688 219.956C375.688 219.956 388.946 234.52 391.025 246.946C391.914 252.258 393.005 252.854 392.438 258.67C392.192 261.188 390.933 262.4 390.086 265.541C389.737 266.835 389.797 267.469 389.862 272.116C390.163 274.762 390.145 277.435 389.808 280.077C389.138 284.609 386.986 288.792 383.688 291.972C381.465 294.111 378.747 296.725 375.103 296.54Z" fill="#E06714"/>
<path d="M376.805 238.58L376.635 397.987L372.807 397.937L376.805 238.58Z" fill="#EE781D"/>
<path d="M399.632 304.937C394.698 303.627 392.921 297.175 392.512 295.685C391.861 293.493 391.72 291.181 392.099 288.926C392.617 286.072 393.654 285.662 393.744 283.299C393.846 280.632 392.58 279.69 391.72 276.6C391.047 273.882 390.969 271.051 391.492 268.301C391.984 263.785 393.787 259.512 396.679 256.009C408.281 242.672 414.943 235.326 414.943 235.326C414.943 235.326 424.203 251.144 423.698 262.858C423.483 267.866 424.361 268.619 422.722 273.804C422.013 276.05 420.633 276.91 419.255 279.606C418.687 280.717 418.62 281.306 417.783 285.549C417.546 288.016 417.014 290.446 416.197 292.786C414.713 296.783 411.946 300.176 408.33 302.436C405.893 303.953 402.914 305.809 399.632 304.937Z" fill="#F9AE2B"/>
<path d="M412.366 252.497L378.694 404.616L374.225 403.558L412.366 252.497Z" fill="#409CB5"/>
<path d="M371.847 349.762C367.988 349.566 365.659 345.066 365.122 344.027C364.296 342.506 363.828 340.816 363.755 339.086C363.691 336.891 364.394 336.425 364.091 334.661C363.747 332.669 362.662 332.171 361.54 330.017C360.615 328.11 360.113 326.026 360.068 323.907C359.724 320.485 360.389 317.038 361.981 313.989C368.479 302.291 372.26 295.805 372.26 295.805C372.26 295.805 381.6 306.066 383.066 314.82C383.692 318.563 384.46 318.983 384.061 323.08C383.888 324.854 383.001 325.708 382.404 327.921C382.158 328.833 382.2 329.28 382.246 332.554C382.458 334.418 382.446 336.301 382.208 338.162C381.736 341.356 380.22 344.303 377.896 346.543C376.33 348.05 374.415 349.892 371.847 349.762Z" fill="#EE781D"/>
<path d="M373.048 308.926L372.256 399.049L368.43 398.934L373.048 308.926Z" fill="#409CB5"/>
<path d="M386.197 323.261C381.835 323.04 379.204 317.955 378.597 316.781C377.663 315.062 377.134 313.152 377.052 311.197C376.979 308.717 377.774 308.19 377.431 306.196C377.043 303.946 375.817 303.382 374.549 300.948C373.503 298.793 372.936 296.438 372.885 294.043C372.496 290.177 373.248 286.281 375.047 282.836C382.39 269.616 386.663 262.286 386.663 262.286C386.663 262.286 397.219 273.882 398.874 283.775C399.582 288.005 400.45 288.479 399.999 293.11C399.803 295.114 398.801 296.08 398.126 298.58C397.848 299.611 397.896 300.116 397.948 303.815C398.188 305.922 398.174 308.05 397.905 310.154C397.372 313.762 395.658 317.092 393.033 319.625C391.262 321.327 389.098 323.409 386.197 323.261Z" fill="#409CB5"/>
<path d="M387.666 277.12L386.674 307.827L385.567 338.528C385.207 348.763 384.979 359.003 384.346 369.224C384.021 374.335 383.696 379.445 383.272 384.551L382.634 392.209C382.375 394.76 382.159 397.312 381.862 399.861L381.633 399.85C381.578 397.285 381.604 394.723 381.587 392.16L381.673 384.475C381.733 379.352 381.892 374.234 382.051 369.116C382.385 358.88 383.124 348.664 383.732 338.441L385.527 307.772L387.436 277.109L387.666 277.12Z" fill="#EE781D"/>
<path d="M358.572 326.931C354.369 327.25 351.23 322.702 350.506 321.651C349.403 320.119 348.664 318.354 348.347 316.492C347.975 314.126 348.673 313.524 348.101 311.657C347.456 309.55 346.213 309.159 344.702 306.983C343.439 305.046 342.609 302.86 342.269 300.573C341.426 296.918 341.671 293.096 342.974 289.578C348.397 276.025 351.597 268.486 351.597 268.486C351.597 268.486 363.116 278.306 365.905 287.577C367.098 291.541 367.987 291.889 368.119 296.379C368.175 298.322 367.333 299.368 366.991 301.845C366.851 302.866 366.958 303.343 367.458 306.88C367.944 308.868 368.189 310.907 368.189 312.954C368.117 316.475 366.882 319.872 364.676 322.617C363.188 324.462 361.369 326.719 358.572 326.931Z" fill="#F9AE2B"/>
<path d="M354.252 282.577L371.388 395.576L366.833 396.174L354.252 282.577Z" fill="#EE781D"/>
<path d="M406.47 328.22C402.042 326.697 400.84 320.677 400.564 319.287C400.112 317.238 400.135 315.113 400.63 313.075C401.292 310.498 402.268 310.191 402.506 308.035C402.775 305.601 401.678 304.656 401.095 301.772C400.658 299.241 400.772 296.646 401.431 294.164C402.179 290.064 404.11 286.273 406.986 283.258C418.478 271.818 425.057 265.535 425.057 265.535C425.057 265.535 432.489 280.617 431.257 291.302C430.731 295.87 431.484 296.616 429.644 301.253C428.847 303.261 427.528 303.957 426.09 306.334C425.498 307.312 425.397 307.847 424.352 311.674C423.974 313.916 423.327 316.104 422.426 318.192C420.805 321.751 418.05 324.674 414.593 326.503C412.263 327.732 409.416 329.233 406.47 328.22Z" fill="#E06714"/>
<path d="M421.57 281.076L386.63 398.574L382.979 397.426L421.57 281.076Z" fill="#EE781D"/>
<path d="M356.065 365.1C353.234 365.673 350.716 362.846 350.135 362.194C349.255 361.245 348.604 360.108 348.231 358.87C347.778 357.293 348.201 356.825 347.655 355.604C347.038 354.226 346.16 354.066 344.949 352.714C343.926 351.505 343.177 350.089 342.753 348.563C341.87 346.15 341.713 343.531 342.302 341.03C344.841 331.359 346.378 325.964 346.378 325.964C346.378 325.964 355.038 331.664 357.719 337.73C358.865 340.323 359.499 340.485 359.968 343.525C360.171 344.841 359.687 345.624 359.665 347.336C359.655 348.042 359.769 348.357 360.408 350.719C360.906 352.029 361.246 353.395 361.418 354.786C361.667 357.185 361.115 359.599 359.848 361.651C358.993 363.032 357.947 364.719 356.065 365.1Z" fill="#F9AE2B"/>
<path d="M349.488 335.292L353.613 351.616L357.627 367.966C358.95 373.419 360.467 378.829 361.529 384.341C362.605 389.849 363.589 395.378 364.198 400.992L363.973 401.042C362.131 395.705 360.663 390.284 359.287 384.843C357.897 379.404 356.963 373.864 355.834 368.368L352.493 351.867L349.264 335.342L349.488 335.292ZM407.003 355.611C402.992 353.779 402.416 348.027 402.283 346.699C402.047 344.737 402.262 342.748 402.913 340.883C403.768 338.528 404.711 338.329 405.131 336.331C405.605 334.074 404.663 333.088 404.379 330.332C404.201 327.92 404.546 325.498 405.389 323.232C406.464 319.458 408.62 316.081 411.591 313.518C423.406 303.845 430.146 298.557 430.146 298.557C430.146 298.557 435.734 313.371 433.604 323.272C432.694 327.505 433.332 328.274 431.184 332.452C430.254 334.26 428.954 334.793 427.39 336.889C426.745 337.752 426.602 338.244 425.273 341.736C424.714 343.802 423.908 345.794 422.873 347.668C421.028 350.856 418.18 353.344 414.773 354.743C412.478 355.681 409.671 356.829 407.003 355.611Z" fill="#409CB5"/>
<path d="M425.563 312.85L415.793 336.629L405.917 360.362C402.611 368.267 399.488 376.251 395.936 384.049C392.398 391.854 388.773 399.621 384.796 407.236L384.585 407.145C387.402 399.029 390.572 391.065 393.828 383.139C397.071 375.206 400.742 367.459 404.231 359.633L414.739 336.173L425.352 312.759L425.563 312.85Z" fill="#EE781D"/>
<path d="M409.173 373.92C406.895 371.932 407.64 368.04 407.813 367.142C408.041 365.807 408.571 364.542 409.363 363.443C410.385 362.063 411.043 362.117 411.71 360.886C412.462 359.496 412.036 358.664 412.388 356.797C412.742 355.178 413.442 353.654 414.439 352.33C415.883 350.06 417.959 348.262 420.412 347.159C430.065 343.112 435.527 340.954 435.527 340.954C435.527 340.954 436.305 351.779 432.97 357.869C431.545 360.473 431.814 361.102 429.586 363.428C428.622 364.434 427.664 364.53 426.226 365.602C425.634 366.043 425.444 366.338 423.889 368.373C423.117 369.621 422.198 370.773 421.152 371.802C419.317 373.536 416.96 374.614 414.448 374.868C412.756 375.036 410.688 375.242 409.173 373.92Z" fill="#F9AE2B"/>
<path d="M429.751 349.473L418.796 363.281L407.753 377.015C404.06 381.583 400.52 386.279 396.622 390.675C392.735 395.081 388.776 399.426 384.522 403.525L384.346 403.377C387.63 398.467 391.209 393.804 394.861 389.201C398.5 384.589 402.498 380.276 406.344 375.836L417.916 362.544L429.575 349.326L429.751 349.473Z" fill="#409CB5"/>
<path d="M113.076 277.719C119.486 277.394 123.353 269.921 124.244 268.196C125.617 265.669 126.394 262.862 126.515 259.99C126.622 256.345 125.453 255.57 125.958 252.641C126.528 249.334 128.33 248.506 130.194 244.929C131.73 241.762 132.563 238.301 132.638 234.782C133.21 229.099 132.105 223.374 129.462 218.312C118.67 198.885 112.391 188.113 112.391 188.113C112.391 188.113 96.8791 205.154 94.4461 219.692C93.4059 225.908 92.1299 226.604 92.7935 233.41C93.0807 236.356 94.5535 237.774 95.5451 241.449C95.9536 242.963 95.8834 243.705 95.8068 249.142C95.4546 252.238 95.4758 255.365 95.8699 258.456C96.7746 266.181 102.023 271.405 103.03 272.374C105.632 274.876 108.812 277.935 113.076 277.719Z" fill="#F9AE2B"/>
<path d="M111.085 209.904L111.284 396.414L115.763 396.356L111.085 209.904Z" fill="#E06714"/>
<path d="M84.3764 287.544C90.1492 286.011 92.2279 278.462 92.7068 276.719C93.4689 274.154 93.6342 271.449 93.1903 268.81C92.5846 265.471 91.3709 264.991 91.2651 262.227C91.1457 259.106 92.6271 258.004 93.6334 254.388C94.4206 251.208 94.5119 247.896 93.9008 244.678C93.3247 239.394 91.2146 234.395 87.8309 230.297C74.2573 214.692 66.4619 206.097 66.4619 206.097C66.4619 206.097 55.6278 224.604 56.218 238.31C56.4704 244.169 55.443 245.05 57.3604 251.117C58.1904 253.744 59.805 254.751 61.417 257.906C62.081 259.205 62.1602 259.895 63.1396 264.859C63.4164 267.746 64.0391 270.589 64.9944 273.327C66.7316 278.004 69.9683 281.973 74.1994 284.617C77.0507 286.393 80.5363 288.564 84.3764 287.544Z" fill="#F9AE2B"/>
<path d="M69.4785 226.187L108.876 404.171L114.105 402.932L69.4785 226.187Z" fill="#409CB5"/>
<path d="M116.885 339.989C121.401 339.76 124.125 334.496 124.753 333.28C125.72 331.5 126.267 329.522 126.353 327.499C126.428 324.931 125.605 324.385 125.96 322.321C126.362 319.991 127.632 319.407 128.945 316.887C130.027 314.656 130.614 312.218 130.667 309.738C131.07 305.735 130.292 301.701 128.429 298.135C120.826 284.447 116.402 276.859 116.402 276.859C116.402 276.859 105.473 288.864 103.759 299.107C103.026 303.486 102.127 303.977 102.595 308.772C102.797 310.847 103.835 311.847 104.534 314.436C104.821 315.502 104.772 316.025 104.718 319.856C104.47 322.037 104.485 324.24 104.762 326.418C105.315 330.154 107.089 333.602 109.807 336.224C111.64 337.987 113.881 340.142 116.885 339.989Z" fill="#F9AE2B"/>
<path d="M115.481 292.211L116.408 397.657L120.884 397.522L115.481 292.211Z" fill="#409CB5"/>
<path d="M100.096 308.983C105.2 308.725 108.278 302.775 108.989 301.401C110.081 299.39 110.7 297.155 110.796 294.868C110.881 291.966 109.951 291.349 110.353 289.017C110.806 286.384 112.242 285.724 113.725 282.877C114.948 280.355 115.612 277.599 115.671 274.798C116.126 270.273 115.247 265.715 113.142 261.685C104.55 246.217 99.5508 237.641 99.5508 237.641C99.5508 237.641 87.2005 251.208 85.2633 262.784C84.4352 267.732 83.4192 268.287 83.9476 273.705C84.1763 276.051 85.3489 277.18 86.1384 280.106C86.4636 281.311 86.4077 281.902 86.3467 286.231C86.0663 288.696 86.0832 291.186 86.397 293.647C87.0213 297.869 89.026 301.766 92.0982 304.728C94.1696 306.72 96.7017 309.156 100.096 308.983Z" fill="#409CB5"/>
<path d="M98.377 254.996L99.5377 290.924L100.833 326.846C101.254 338.821 101.52 350.802 102.262 362.762C102.642 368.741 103.021 374.72 103.517 380.694L104.265 389.654C104.567 392.638 104.82 395.625 105.168 398.607L105.436 398.594C105.5 395.593 105.47 392.596 105.489 389.596L105.388 380.605C105.318 374.611 105.132 368.623 104.946 362.634C104.556 350.659 103.691 338.705 102.98 326.745L100.88 290.861L98.6455 254.984L98.377 254.996Z" fill="#EE781D"/>
<path d="M132.417 313.277C137.335 313.651 141.008 308.329 141.855 307.099C143.146 305.306 144.01 303.241 144.381 301.063C144.816 298.295 144 297.591 144.669 295.406C145.424 292.94 146.878 292.483 148.646 289.937C150.124 287.671 151.095 285.113 151.493 282.438C152.479 278.161 152.192 273.689 150.667 269.573C144.323 253.716 140.579 244.895 140.579 244.895C140.579 244.895 127.101 256.384 123.837 267.232C122.442 271.87 121.402 272.277 121.248 277.53C121.181 279.804 122.167 281.028 122.567 283.926C122.731 285.12 122.606 285.679 122.021 289.816C121.452 292.143 121.165 294.529 121.166 296.924C121.25 301.043 122.695 305.018 125.276 308.229C127.017 310.389 129.146 313.029 132.417 313.277Z" fill="#F9AE2B"/>
<path d="M137.472 261.382L117.422 393.594L122.751 394.293L137.472 261.382Z" fill="#EE781D"/>
<path d="M76.3758 314.785C81.557 313.003 82.9625 305.959 83.286 304.333C83.8146 301.936 83.788 299.45 83.2083 297.065C82.4346 294.05 81.2925 293.69 81.0139 291.168C80.6994 288.32 81.9824 287.215 82.6653 283.84C83.1765 280.879 83.0422 277.842 82.2715 274.938C81.3969 270.142 79.1375 265.706 75.772 262.179C62.3263 248.793 54.6286 241.442 54.6286 241.442C54.6286 241.442 45.9328 259.088 47.3741 271.589C47.9903 276.934 47.1083 277.807 49.2616 283.233C50.1938 285.582 51.7373 286.397 53.4196 289.177C54.1126 290.323 54.2305 290.948 55.453 295.426C55.8961 298.049 56.6529 300.609 57.707 303.052C59.604 307.216 62.8266 310.636 66.8717 312.776C69.5973 314.214 72.9293 315.971 76.3758 314.785Z" fill="#EE781D"/>
<path d="M58.709 259.626L99.589 397.102L103.861 395.758L58.709 259.626Z" fill="#F9AE2B"/>
<path d="M135.352 357.936C138.663 358.606 141.61 355.299 142.29 354.535C143.319 353.425 144.081 352.095 144.518 350.646C145.047 348.801 144.552 348.253 145.192 346.825C145.913 345.213 146.941 345.025 148.358 343.444C149.554 342.029 150.43 340.372 150.927 338.587C151.96 335.764 152.143 332.7 151.455 329.773C148.484 318.458 146.686 312.146 146.686 312.146C146.686 312.146 136.552 318.814 133.416 325.912C132.075 328.946 131.333 329.135 130.785 332.693C130.547 334.233 131.113 335.148 131.14 337.152C131.151 337.977 131.018 338.346 130.27 341.109C129.687 342.642 129.29 344.24 129.088 345.868C128.796 348.675 129.442 351.499 130.925 353.9C131.926 355.516 133.149 357.49 135.352 357.936Z" fill="#E06714"/>
<path d="M143.047 323.06L138.22 342.16L133.524 361.289C131.976 367.67 130.201 373.999 128.959 380.448C127.7 386.893 126.548 393.362 125.836 399.93L126.098 399.989C128.255 393.744 129.971 387.402 131.581 381.035C133.208 374.672 134.301 368.19 135.622 361.759L139.531 342.453L143.309 323.118L143.047 323.06Z" fill="#F9AE2B"/>
<path d="M75.7522 346.833C80.4454 344.69 81.1196 337.96 81.2744 336.406C81.551 334.111 81.2991 331.783 80.5381 329.601C79.5377 326.846 78.4345 326.613 77.9432 324.275C77.3885 321.635 78.49 320.481 78.8219 317.256C79.0308 314.434 78.6277 311.6 77.6402 308.949C76.3827 304.533 73.8603 300.583 70.384 297.584C56.5605 286.266 48.6749 280.079 48.6749 280.079C48.6749 280.079 42.1359 297.411 44.6279 308.996C45.6933 313.949 44.9463 314.848 47.4598 319.736C48.5478 321.853 50.0689 322.476 51.8994 324.928C52.6535 325.938 52.821 326.513 54.3756 330.599C55.0303 333.017 55.9733 335.347 57.1842 337.54C59.3423 341.27 62.6747 344.181 66.6612 345.817C69.347 346.916 72.6302 348.258 75.7522 346.833Z" fill="#409CB5"/>
<path d="M54.0361 296.802L65.4676 324.624L77.0223 352.392C80.8904 361.641 84.5446 370.983 88.7005 380.107C92.8406 389.239 97.0813 398.327 101.735 407.236L101.982 407.13C98.6864 397.633 94.9771 388.316 91.1672 379.042C87.3735 369.761 83.0777 360.696 78.9957 351.54L66.7009 324.091L54.2828 296.695L54.0361 296.802Z" fill="#EE781D"/>
<path d="M73.2122 368.255C75.8772 365.93 75.0052 361.376 74.8032 360.325C74.5366 358.763 73.9163 357.283 72.9898 355.997C71.7941 354.382 71.0238 354.445 70.244 353.005C69.3637 351.378 69.8621 350.405 69.45 348.221C69.0359 346.326 68.2173 344.543 67.0504 342.994C65.3613 340.338 62.9319 338.235 60.0619 336.944C48.7675 332.209 42.3772 329.684 42.3772 329.684C42.3772 329.684 41.4673 342.35 45.3684 349.475C47.0362 352.521 46.7211 353.258 49.3277 355.979C50.4562 357.157 51.5774 357.269 53.2593 358.523C53.9522 359.039 54.1746 359.384 55.9943 361.765C56.897 363.226 57.9719 364.573 59.1961 365.777C61.3429 367.806 64.1012 369.068 67.0404 369.364C69.0198 369.561 71.4395 369.802 73.2122 368.255Z" fill="#F9AE2B"/>
<path d="M49.1357 339.652L61.9536 355.807L74.8743 371.876C79.1951 377.221 83.3373 382.716 87.8982 387.859C92.4464 393.014 97.0785 398.099 102.056 402.894L102.262 402.721C98.4191 396.976 94.2313 391.521 89.9591 386.135C85.7005 380.738 81.0228 375.692 76.5232 370.497L62.9841 354.945L49.3418 339.479L49.1357 339.652Z" fill="#409CB5"/>
<path d="M447.173 394.56H42.1729V409.68H447.173V394.56Z" fill="#4469A0"/>
<path d="M301.654 394.56V116.64C301.654 104.916 299.344 93.3059 294.858 82.474C290.371 71.642 283.795 61.7999 275.504 53.5094C267.214 45.219 257.372 38.6427 246.54 34.156C235.708 29.6692 224.098 27.3599 212.374 27.3599H212.374C188.695 27.36 165.986 36.7662 149.243 53.5095C132.5 70.2527 123.094 92.9614 123.094 116.64V394.56H301.654Z" fill="#E06714"/>
<path d="M352.053 411.84L173.493 451.84V89.2799C173.493 77.5555 175.802 65.9459 180.289 55.114C184.776 44.282 191.352 34.4399 199.643 26.1495C207.933 17.8591 217.775 11.2828 228.607 6.79602C239.439 2.30928 251.049 -3.93965e-06 262.773 0H262.773C286.452 7.9565e-06 309.16 9.40626 325.904 26.1495C342.647 42.8927 352.053 65.6014 352.053 89.2799V411.84Z" fill="#EE781D"/>
<path d="M198.694 264.96C206.249 264.96 212.374 258.835 212.374 251.28C212.374 243.725 206.249 237.6 198.694 237.6C191.138 237.6 185.014 243.725 185.014 251.28C185.014 258.835 191.138 264.96 198.694 264.96Z" fill="#F9AE2B"/>
<path d="M262.773 136.8C267.148 136.8 270.694 133.254 270.694 128.88C270.694 124.506 267.148 120.96 262.773 120.96C258.399 120.96 254.854 124.506 254.854 128.88C254.854 133.254 258.399 136.8 262.773 136.8Z" fill="#F9AE2B"/>
<path d="M203.653 281.34C203.653 283.527 200.88 289.3 198.693 289.3C196.506 289.3 193.733 283.527 193.733 281.34C193.733 279.153 196.506 277.38 198.693 277.38C200.88 277.38 203.653 279.153 203.653 281.34Z" fill="#F9AE2B"/>
</svg>
