<svg width="220" height="59" viewBox="0 0 220 59" fill="none" xmlns="http://www.w3.org/2000/svg">
<path d="M43.1938 43.696C43.1707 45.2413 41.4783 46.1776 40.1569 45.3762L17.3161 31.524C16.0098 30.7317 16.0382 28.8264 17.3677 28.0736L40.6123 14.9103C41.9571 14.1487 43.6207 15.1352 43.5976 16.6805L43.1938 43.696Z" fill="#2192FF"/>
<path d="M3.63115 31.3923C3.01213 30.9911 3.02574 30.0807 3.65648 29.6981L36.1666 9.98116C36.8388 9.57351 37.6968 10.0651 37.685 10.8511L37.0812 51.248C37.0694 52.0341 36.197 52.4998 35.5374 52.0723L3.63115 31.3923Z" stroke="black" stroke-width="2"/>
<path d="M48.595 44L62.635 12.5H69.835L83.92 44H76.27L64.75 16.19H67.63L56.065 44H48.595ZM55.615 37.25L57.55 31.715H73.75L75.73 37.25H55.615ZM148.656 44V19.79H155.676V44H148.656ZM152.166 16.415C150.876 16.415 149.826 16.04 149.016 15.29C148.206 14.54 147.801 13.61 147.801 12.5C147.801 11.39 148.206 10.46 149.016 9.71C149.826 8.96 150.876 8.585 152.166 8.585C153.456 8.585 154.506 8.945 155.316 9.665C156.126 10.355 156.531 11.255 156.531 12.365C156.531 13.535 156.126 14.51 155.316 15.29C154.536 16.04 153.486 16.415 152.166 16.415ZM162.191 44V10.61H169.211V44H162.191Z" fill="black"/>
<path d="M96.9981 44.36C94.7181 44.36 92.6631 43.85 90.8331 42.83C89.0031 41.81 87.5481 40.37 86.4681 38.51C85.4181 36.65 84.8931 34.445 84.8931 31.895C84.8931 29.375 85.4181 27.185 86.4681 25.325C87.5481 23.465 89.0031 22.025 90.8331 21.005C92.6631 19.955 94.7181 19.43 96.9981 19.43C99.1281 19.43 100.943 19.88 102.443 20.78C103.973 21.68 105.143 23.045 105.953 24.875C106.763 26.705 107.168 29.045 107.168 31.895C107.168 34.715 106.748 37.055 105.908 38.915C105.068 40.745 103.883 42.11 102.353 43.01C100.823 43.91 99.0381 44.36 96.9981 44.36ZM98.2131 38.6C99.3531 38.6 100.388 38.33 101.318 37.79C102.248 37.25 102.983 36.485 103.523 35.495C104.093 34.475 104.378 33.275 104.378 31.895C104.378 30.485 104.093 29.285 103.523 28.295C102.983 27.305 102.248 26.54 101.318 26C100.388 25.46 99.3531 25.19 98.2131 25.19C97.0431 25.19 95.9931 25.46 95.0631 26C94.1331 26.54 93.3831 27.305 92.8131 28.295C92.2731 29.285 92.0031 30.485 92.0031 31.895C92.0031 33.275 92.2731 34.475 92.8131 35.495C93.3831 36.485 94.1331 37.25 95.0631 37.79C95.9931 38.33 97.0431 38.6 98.2131 38.6ZM104.243 52.73V39.095L104.693 31.94L104.558 24.74V19.79H111.263V52.73H104.243ZM127.977 44.36C125.967 44.36 124.167 43.97 122.577 43.19C121.017 42.41 119.802 41.225 118.932 39.635C118.062 38.015 117.627 35.96 117.627 33.47V19.79H124.647V32.435C124.647 34.445 125.067 35.93 125.907 36.89C126.777 37.82 127.992 38.285 129.552 38.285C130.632 38.285 131.592 38.06 132.432 37.61C133.272 37.13 133.932 36.41 134.412 35.45C134.892 34.46 135.132 33.23 135.132 31.76V19.79H142.152V44H135.492V37.34L136.707 39.275C135.897 40.955 134.697 42.23 133.107 43.1C131.547 43.94 129.837 44.36 127.977 44.36ZM190.576 44V39.275L190.126 38.24V29.78C190.126 28.28 189.661 27.11 188.731 26.27C187.831 25.43 186.436 25.01 184.546 25.01C183.256 25.01 181.981 25.22 180.721 25.64C179.491 26.03 178.441 26.57 177.571 27.26L175.051 22.355C176.371 21.425 177.961 20.705 179.821 20.195C181.681 19.685 183.571 19.43 185.491 19.43C189.181 19.43 192.046 20.3 194.086 22.04C196.126 23.78 197.146 26.495 197.146 30.185V44H190.576ZM183.196 44.36C181.306 44.36 179.686 44.045 178.336 43.415C176.986 42.755 175.951 41.87 175.231 40.76C174.511 39.65 174.151 38.405 174.151 37.025C174.151 35.585 174.496 34.325 175.186 33.245C175.906 32.165 177.031 31.325 178.561 30.725C180.091 30.095 182.086 29.78 184.546 29.78H190.981V33.875H185.311C183.661 33.875 182.521 34.145 181.891 34.685C181.291 35.225 180.991 35.9 180.991 36.71C180.991 37.61 181.336 38.33 182.026 38.87C182.746 39.38 183.721 39.635 184.951 39.635C186.121 39.635 187.171 39.365 188.101 38.825C189.031 38.255 189.706 37.43 190.126 36.35L191.206 39.59C190.696 41.15 189.766 42.335 188.416 43.145C187.066 43.955 185.326 44.36 183.196 44.36ZM213.4 44.36C210.55 44.36 208.33 43.64 206.74 42.2C205.15 40.73 204.355 38.555 204.355 35.675V14.435H211.375V35.585C211.375 36.605 211.645 37.4 212.185 37.97C212.725 38.51 213.46 38.78 214.39 38.78C215.5 38.78 216.445 38.48 217.225 37.88L219.115 42.83C218.395 43.34 217.525 43.73 216.505 44C215.515 44.24 214.48 44.36 213.4 44.36ZM200.62 25.73V20.33H217.405V25.73H200.62Z" fill="#2192FF"/>
</svg>
